<?xml version="1.0" encoding="utf-8"?>
<!-- Generator: Adobe Illustrator 27.3.1, SVG Export Plug-In . SVG Version: 6.00 Build 0)  -->
<svg version="1.1" id="Layer_1" xmlns="http://www.w3.org/2000/svg" xmlns:xlink="http://www.w3.org/1999/xlink" x="0px" y="0px"
	 viewBox="0 0 128.33 287.72" style="enable-background:new 0 0 128.33 287.72;" xml:space="preserve">
<style type="text/css">
	.st0{fill:#C4A776;}
</style>
<path class="st0" d="M13.51,13.92C8.59,9.01,6.75,0,6.75,0S4.92,9.01,0,13.92c2.84,2.85,4.63,7.03,5.65,10.06v160.35
	c-1.86,0.49-3.27,2.13-3.27,4.15c0,2.02,1.4,3.66,3.27,4.16v93.98c0,0.61,0.5,1.09,1.1,1.09c0,0,0.06-0.02,0.07-0.03h97.5
	c6.18,0,15.01-0.35,19.42-4.65c4.27-4.16,4.69-8.7,4.57-11.03c-0.14-2.18-0.83-4.17-1.85-5.49c-1.28-1.77-3.55-2.92-6.16-2.92
	c-4.17,0-7.56,3.07-7.56,6.87c0,3.21,2.45,5.89,5.73,6.63c-0.14-0.32-0.23-0.67-0.23-1.04c0-1.45,1.3-2.6,2.9-2.64
	c2.29-0.01,4.37,3.68,1.6,7.49c-0.18,0.19-0.32,0.39-0.52,0.57c-3.46,3.37-10.58,3.93-16.23,4.01c-3.17-0.98-12.23-4.24-17.63-10.89
	c-5.43,6.68-14.54,9.93-17.67,10.9h-2.73c-0.89-2.56-3.31-4.4-6.17-4.4c-2.85,0-5.27,1.84-6.16,4.4H7.84v-33.46
	c5.29,15.18,19.71,26.11,36.67,26.11c19.28,0,35.29-14.13,38.3-32.58c1.68-0.62,2.89-2.19,2.89-4.08c0-1.42-0.73-2.62-1.78-3.43
	c0.99-17.4-8.8-39.36-19.12-62.51c-9.15-20.54-18.62-41.78-19.42-58.87c-0.78-15.94,5.69-22.29,10.06-24.75
	c-0.04,0.21-0.12,0.4-0.12,0.62c0,2.41,1.97,4.38,4.38,4.38c2.41,0,4.37-1.96,4.37-4.38c0-2.41-1.96-4.38-4.37-4.38
	c-0.26,0-0.46,0.11-0.71,0.14c0,0-0.06-0.03-0.11-0.02c-0.02,0-0.34,0.07-0.86,0.22c-0.01,0.01-0.02,0.01-0.04,0.01
	c-3.31,1-14.85,5.9-14.85,25.72c0,0.83,0.02,1.67,0.07,2.54c0.81,17.51,10.37,38.94,19.6,59.66c5.96,13.39,12.02,27.02,15.65,39.49
	c-11.45-28.66-40.43-43.6-49.84-74.36c-4.72-15.41-4.37-34.11-4.37-34.11V74.41c-0.05-5.81-0.1-15.5,4.01-19.73
	c0.19-0.2,0.39-0.35,0.57-0.52c3.8-2.76,7.5-0.68,7.48,1.61c-0.02,1.6-1.18,2.9-2.63,2.9c-0.36,0-0.71-0.09-1.04-0.24
	c0.75,3.29,3.42,5.73,6.64,5.73c3.79,0,6.87-3.38,6.87-7.55c0-2.62-1.14-4.88-2.93-6.17c-1.29-1.01-3.29-1.71-5.47-1.84
	c-2.34-0.12-6.88,0.29-11.03,4.56c-4.29,4.41-4.65,13.24-4.65,19.41v104.42c1.48-3.57,4.99-6.08,9.09-6.08
	c5.44,0,9.86,4.41,9.86,9.85c0,5.44-4.42,9.85-9.86,9.85c-4.1,0-7.61-2.51-9.09-6.08c0,14.77,0,24.95,0,24.95
	c0,0.6,0.5,1.09,1.09,1.09c0,0,7.35-16.43,27.75-13.97c17.77,2.15,29.25,19.94,30.34,40.54c-2.38,0.04-4.31,1.98-4.31,4.36
	c0,2.16,1.58,3.86,3.63,4.23c-3.05,17.16-18.04,30.25-36.06,30.25c-17.96,0-32.9-12.98-36.03-30.04
	c5.24,12.52,17.28,21.32,31.25,21.32c15.16,0,27.49-12.79,27.49-28.5c0-12.69-9.95-23.01-22.2-23.01c-9.93,0-17.99,8.36-17.99,18.63
	c0,8.35,6.55,15.13,14.61,15.13c6.56,0,11.9-5.53,11.9-12.33c0-5.55-4.37-10.07-9.73-10.07c-0.1,0-0.16,0.08-0.25,0.1
	c-3.39,0.24-6.08,3.06-6.08,6.52c0,3.63,2.95,6.57,6.57,6.57c3.6,0,6.5-2.89,6.56-6.47c0.47,1.03,0.74,2.15,0.74,3.35
	c0,5.59-4.36,10.13-9.71,10.13c-6.85,0-12.41-5.8-12.41-12.94c0-9.06,7.08-16.45,15.8-16.45c11.03,0,20,9.35,20,20.83
	c0,14.51-11.34,26.31-25.3,26.31c-17.58,0-31.88-14.88-31.89-33.16v-39.26c1.88-0.49,3.29-2.13,3.29-4.16c0-2.03-1.4-3.66-3.29-4.16
	V24.01C8.87,20.96,10.65,16.77,13.51,13.92z"/>
</svg>
