<?xml version="1.0" encoding="utf-8"?>
<!-- Generator: Adobe Illustrator 27.3.1, SVG Export Plug-In . SVG Version: 6.00 Build 0)  -->
<svg version="1.1" id="Layer_1" xmlns="http://www.w3.org/2000/svg" xmlns:xlink="http://www.w3.org/1999/xlink" x="0px" y="0px"
	 viewBox="0 0 128.3 287.7" style="enable-background:new 0 0 128.3 287.7;" xml:space="preserve">
<style type="text/css">
	.st0{fill:#BA7F08;}
</style>
<path class="st0" d="M13.5,13.9C8.6,9,6.8,0,6.8,0S4.9,9,0,13.9c2.8,2.9,4.6,7,5.7,10.1v160.4c-1.9,0.5-3.3,2.1-3.3,4.1
	c0,2,1.4,3.7,3.3,4.2v94c0,0.6,0.5,1.1,1.1,1.1c0,0,0.1,0,0.1,0h97.5c6.2,0,15-0.4,19.4-4.6c4.3-4.2,4.7-8.7,4.6-11
	c-0.1-2.2-0.8-4.2-1.8-5.5c-1.3-1.8-3.6-2.9-6.2-2.9c-4.2,0-7.6,3.1-7.6,6.9c0,3.2,2.4,5.9,5.7,6.6c-0.1-0.3-0.2-0.7-0.2-1
	c0-1.5,1.3-2.6,2.9-2.6c2.3,0,4.4,3.7,1.6,7.5c-0.2,0.2-0.3,0.4-0.5,0.6c-3.5,3.4-10.6,3.9-16.2,4c-3.2-1-12.2-4.2-17.6-10.9
	c-5.4,6.7-14.5,9.9-17.7,10.9H68c-0.9-2.6-3.3-4.4-6.2-4.4c-2.8,0-5.3,1.8-6.2,4.4H7.8V252c5.3,15.2,19.7,26.1,36.7,26.1
	c19.3,0,35.3-14.1,38.3-32.6c1.7-0.6,2.9-2.2,2.9-4.1c0-1.4-0.7-2.6-1.8-3.4c1-17.4-8.8-39.4-19.1-62.5
	c-9.2-20.5-18.6-41.8-19.4-58.9c-0.8-15.9,5.7-22.3,10.1-24.8c0,0.2-0.1,0.4-0.1,0.6c0,2.4,2,4.4,4.4,4.4s4.4-2,4.4-4.4
	c0-2.4-2-4.4-4.4-4.4c-0.3,0-0.5,0.1-0.7,0.1c0,0-0.1,0-0.1,0c0,0-0.3,0.1-0.9,0.2c0,0,0,0,0,0c-3.3,1-14.9,5.9-14.9,25.7
	c0,0.8,0,1.7,0.1,2.5c0.8,17.5,10.4,38.9,19.6,59.7c6,13.4,12,27,15.7,39.5C67,187.3,38,172.3,28.6,141.6
	c-4.7-15.4-4.4-34.1-4.4-34.1v-33c0-5.8-0.1-15.5,4-19.7c0.2-0.2,0.4-0.3,0.6-0.5c3.8-2.8,7.5-0.7,7.5,1.6c0,1.6-1.2,2.9-2.6,2.9
	c-0.4,0-0.7-0.1-1-0.2c0.8,3.3,3.4,5.7,6.6,5.7c3.8,0,6.9-3.4,6.9-7.5c0-2.6-1.1-4.9-2.9-6.2c-1.3-1-3.3-1.7-5.5-1.8
	c-2.3-0.1-6.9,0.3-11,4.6c-4.3,4.4-4.6,13.2-4.6,19.4V177c1.5-3.6,5-6.1,9.1-6.1c5.4,0,9.9,4.4,9.9,9.9s-4.4,9.9-9.9,9.9
	c-4.1,0-7.6-2.5-9.1-6.1c0,14.8,0,24.9,0,24.9c0,0.6,0.5,1.1,1.1,1.1c0,0,7.4-16.4,27.8-14c17.8,2.1,29.2,19.9,30.3,40.5
	c-2.4,0-4.3,2-4.3,4.4c0,2.2,1.6,3.9,3.6,4.2c-3.1,17.2-18,30.2-36.1,30.2c-18,0-32.9-13-36-30c5.2,12.5,17.3,21.3,31.2,21.3
	c15.2,0,27.5-12.8,27.5-28.5c0-12.7-10-23-22.2-23c-9.9,0-18,8.4-18,18.6c0,8.4,6.6,15.1,14.6,15.1c6.6,0,11.9-5.5,11.9-12.3
	c0-5.6-4.4-10.1-9.7-10.1c-0.1,0-0.2,0.1-0.2,0.1c-3.4,0.2-6.1,3.1-6.1,6.5c0,3.6,3,6.6,6.6,6.6c3.6,0,6.5-2.9,6.6-6.5
	c0.5,1,0.7,2.1,0.7,3.4c0,5.6-4.4,10.1-9.7,10.1c-6.8,0-12.4-5.8-12.4-12.9c0-9.1,7.1-16.4,15.8-16.4c11,0,20,9.4,20,20.8
	c0,14.5-11.3,26.3-25.3,26.3c-17.6,0-31.9-14.9-31.9-33.2v-39.3c1.9-0.5,3.3-2.1,3.3-4.2s-1.4-3.7-3.3-4.2V24
	C8.9,21,10.6,16.8,13.5,13.9z"/>
</svg>
