<?xml version="1.0" encoding="utf-8"?>
<!-- Generator: Adobe Illustrator 27.3.1, SVG Export Plug-In . SVG Version: 6.00 Build 0)  -->
<svg version="1.1" id="Layer_1" xmlns="http://www.w3.org/2000/svg" xmlns:xlink="http://www.w3.org/1999/xlink" x="0px" y="0px"
	 viewBox="0 0 266.13 328.62" style="enable-background:new 0 0 266.13 328.62;" xml:space="preserve">
<style type="text/css">
	
		.st0{fill-rule:evenodd;clip-rule:evenodd;fill:url(#SVGID_1_);stroke:url(#SVGID_00000157303881168907407540000015184536876176991126_);stroke-width:2;stroke-miterlimit:10;}
	.st1{fill:#FFEEA7;}
</style>
<linearGradient id="SVGID_1_" gradientUnits="userSpaceOnUse" x1="9.9232" y1="164.254" x2="258.3575" y2="164.3702">
	<stop  offset="0" style="stop-color:#801431"/>
	<stop  offset="0.0371" style="stop-color:#851436"/>
	<stop  offset="0.0842" style="stop-color:#951345"/>
	<stop  offset="0.1081" style="stop-color:#A0134F"/>
	<stop  offset="0.1704" style="stop-color:#991349"/>
	<stop  offset="0.2602" style="stop-color:#86133A"/>
	<stop  offset="0.3568" style="stop-color:#6A1223"/>
	<stop  offset="0.5089" style="stop-color:#5B0F1F"/>
	<stop  offset="0.6755" style="stop-color:#4F0D1C"/>
	<stop  offset="0.829" style="stop-color:#771521"/>
	<stop  offset="0.8866" style="stop-color:#741421"/>
	<stop  offset="0.9328" style="stop-color:#6A121F"/>
	<stop  offset="0.9749" style="stop-color:#590F1E"/>
	<stop  offset="1" style="stop-color:#4B0C1C"/>
</linearGradient>
<linearGradient id="SVGID_00000075858300338685432020000009750838135422833561_" gradientUnits="userSpaceOnUse" x1="4.8535" y1="164.3116" x2="261.2769" y2="164.3116">
	<stop  offset="0" style="stop-color:#AE762A"/>
	<stop  offset="0.09" style="stop-color:#DDB763"/>
	<stop  offset="0.1398" style="stop-color:#F4D67F"/>
	<stop  offset="0.2581" style="stop-color:#FBF9D8"/>
	<stop  offset="0.3602" style="stop-color:#F4D67F"/>
	<stop  offset="0.4892" style="stop-color:#AE762A"/>
	<stop  offset="0.5689" style="stop-color:#DDB763"/>
	<stop  offset="0.6129" style="stop-color:#F4D67F"/>
	<stop  offset="0.7366" style="stop-color:#FBF9D8"/>
	<stop  offset="0.8387" style="stop-color:#F4D67F"/>
	<stop  offset="1" style="stop-color:#AE762A"/>
</linearGradient>
<path style="fill-rule:evenodd;clip-rule:evenodd;fill:url(#SVGID_1_);stroke:url(#SVGID_00000075858300338685432020000009750838135422833561_);stroke-width:2;stroke-miterlimit:10;" d="
	M31.38,47.87h23.23C70.53,21.16,99.7,3.25,133.07,3.25c33.36,0,62.54,17.9,78.46,44.62h23.23c2.45,12.36,12.77,21.88,25.52,23.13
	v186.61c-12.75,1.25-23.07,10.77-25.52,23.13h-23.23c-15.92,26.72-45.1,44.62-78.46,44.62c-33.36,0-62.54-17.9-78.46-44.62H31.38
	c-2.45-12.36-12.77-21.88-25.52-23.13V71.01C18.6,69.76,28.92,60.23,31.38,47.87L31.38,47.87z"/>
<g>
	<g>
		<g id="XMLID_00000031887654877347987950000002942452169932724652_">
			<g id="XMLID_00000011000366707634856410000011454362503841644180_">
				<path id="XMLID_00000075134176827420155630000001956609484664619654_" class="st1" d="M135.77,45.08
					c2.71,1.29,4.24-1.61,2.84-2.63c-0.03,0.26-1.15,1.57-2.74,0.21c-0.94-0.8-1.26-2.5-0.49-4.03c0.52-1.04,1.51-1.7,2.48-1.35
					c1.22,0.44,0.94,1.88,0.25,2.38c3.46,1.45,5.12-4.08,0.3-4.54c0.52-0.25,2.17-0.66,3.62-0.58c7.53,0.38,7.12,9.6,2.41,6.54
					c-1.15,0.39-1.04,4.31,2.33,4.23c2.63-0.07,3.84-2.93,3.23-5.81c0.87,0.95,2.07,1.69,3.79,1.62c3.74-0.14,3.41-5.2,0.11-4.54
					c1.13,0.22,1.07,2.17-0.86,2.5c-1.42,0.25-3.42-1.56-4.51-2.68c-1.89-1.77-4.2-2.98-7.08-2.9
					C132.3,33.75,132.3,43.43,135.77,45.08z"/>
				<path id="XMLID_00000182525581428481682180000016053635443136937137_" class="st1" d="M112.31,41.63
					c1.72,0.06,3.02-1.19,3.88-2.14c-0.62,2.89,0.59,5.74,3.23,5.81c3.37,0.09,3.85-3.38,2.33-4.23c-4.71,3.07-5.12-6.15,2.41-6.54
					c1.45-0.07,3.1,0.33,3.62,0.58c-4.82,0.45-3.17,5.98,0.3,4.54c-0.69-0.5-0.97-1.94,0.25-2.38c0.96-0.35,1.96,0.32,2.48,1.35
					c0.77,1.53,0.45,3.23-0.49,4.03c-1.59,1.36-2.71,0.05-2.74-0.21c-1.39,1.03,0.13,3.93,2.84,2.63
					c3.47-1.65,3.47-11.34-5.67-11.59c-2.88-0.08-5.19,1.14-7.08,2.9c-1.09,1.13-3.09,2.93-4.51,2.68c-1.93-0.34-1.99-2.28-0.86-2.5
					C108.99,35.91,108.57,41.49,112.31,41.63z"/>
			</g>
			<g id="XMLID_00000104676681456635693060000002517839748339985564_">
				<path id="XMLID_00000143592364050694378160000005914625615199305609_" class="st1" d="M134.08,30.81
					c0.13-0.82,1.11-1.62,2.09-0.75c1.88,1.68-2.39,5.4-2.88,5.99c1.8-0.73,6.79-5.46,3.9-7.84
					C135.11,26.51,132.23,28.63,134.08,30.81z"/>
				<path id="XMLID_00000163074077589588727630000009151640663633895089_" class="st1" d="M132.84,36.04
					c-0.49-0.6-4.76-4.31-2.88-5.99c0.97-0.87,1.95-0.07,2.09,0.75c1.86-2.18-1.03-4.3-3.1-2.6
					C126.06,30.59,131.04,35.32,132.84,36.04z"/>
			</g>
			<path id="XMLID_00000136393490593937633890000001605153332577545384_" class="st1" d="M133.07,28.5
				c0.43-0.88,1.14-2.12,2.67-1.98c-0.31-1.39-1.14-1.29-1.56-1.11c-0.01-0.58-0.22-1.76-1.11-2.05c-0.89,0.3-1.1,1.47-1.11,2.05
				c-0.42-0.18-1.25-0.28-1.56,1.11C131.92,26.39,132.63,27.62,133.07,28.5z"/>
			<polygon id="XMLID_00000027598871807017096290000006607975262890674603_" class="st1" points="135.82,46.87 134.04,48.2 
				133.07,50.62 132.09,48.2 130.31,46.87 132.09,45.55 133.07,43.13 134.04,45.55 			"/>
		</g>
		<g id="XMLID_00000017513734382422065430000002395847483441208720_">
			<g id="XMLID_00000091699156968030689500000011628872561748444289_">
				<path id="XMLID_00000174595053565682407400000013912643461501196694_" class="st1" d="M130.36,273.31
					c-2.71-1.29-4.24,1.61-2.84,2.63c0.03-0.26,1.15-1.57,2.74-0.21c0.94,0.8,1.26,2.5,0.49,4.03c-0.52,1.04-1.51,1.7-2.48,1.35
					c-1.22-0.44-0.94-1.88-0.25-2.38c-3.46-1.45-5.12,4.08-0.3,4.54c-0.52,0.25-2.17,0.66-3.62,0.58c-7.53-0.38-7.12-9.6-2.41-6.54
					c1.15-0.39,1.04-4.31-2.33-4.23c-2.63,0.07-3.84,2.93-3.23,5.81c-0.87-0.95-2.07-1.69-3.79-1.62c-3.74,0.14-3.41,5.2-0.11,4.54
					c-1.13-0.22-1.07-2.17,0.86-2.5c1.42-0.25,3.42,1.56,4.51,2.68c1.89,1.77,4.2,2.98,7.08,2.9
					C133.83,284.65,133.83,274.96,130.36,273.31z"/>
				<path id="XMLID_00000065780728707204695470000003360639555416157593_" class="st1" d="M153.82,276.77
					c-1.72-0.06-3.02,1.19-3.88,2.14c0.62-2.89-0.59-5.74-3.23-5.81c-3.37-0.09-3.85,3.38-2.33,4.23c4.71-3.07,5.12,6.15-2.41,6.54
					c-1.45,0.07-3.1-0.33-3.62-0.58c4.82-0.45,3.17-5.98-0.3-4.54c0.69,0.5,0.97,1.94-0.25,2.38c-0.96,0.35-1.96-0.32-2.48-1.35
					c-0.77-1.53-0.45-3.23,0.49-4.03c1.59-1.36,2.71-0.05,2.74,0.21c1.39-1.03-0.13-3.93-2.84-2.63
					c-3.47,1.65-3.47,11.34,5.67,11.59c2.88,0.08,5.19-1.14,7.08-2.9c1.09-1.13,3.09-2.93,4.51-2.68c1.93,0.34,1.99,2.28,0.86,2.5
					C157.14,282.48,157.56,276.9,153.82,276.77z"/>
			</g>
			<g id="XMLID_00000023271045611870820270000008672122957440000656_">
				<path id="XMLID_00000073689300143996101460000007521426428352912261_" class="st1" d="M132.05,287.59
					c-0.13,0.82-1.11,1.62-2.09,0.75c-1.88-1.68,2.39-5.4,2.88-5.99c-1.8,0.73-6.79,5.46-3.9,7.84
					C131.02,291.89,133.9,289.77,132.05,287.59z"/>
				<path id="XMLID_00000103261269139118156390000006592423222365048965_" class="st1" d="M133.29,282.35
					c0.49,0.6,4.76,4.31,2.88,5.99c-0.97,0.87-1.95,0.07-2.09-0.75c-1.86,2.18,1.03,4.3,3.1,2.6
					C140.07,287.81,135.09,283.08,133.29,282.35z"/>
			</g>
			<path id="XMLID_00000125576579195434991830000015881548544714707624_" class="st1" d="M133.07,289.89
				c-0.43,0.88-1.14,2.12-2.67,1.98c0.31,1.39,1.14,1.29,1.56,1.11c0.01,0.58,0.22,1.76,1.11,2.05c0.89-0.3,1.1-1.47,1.11-2.05
				c0.42,0.18,1.25,0.28,1.56-1.11C134.21,292.01,133.5,290.77,133.07,289.89z"/>
			<polygon id="XMLID_00000108275547916163087770000016056869027701715334_" class="st1" points="130.31,271.52 132.09,270.2 
				133.07,267.77 134.04,270.2 135.82,271.52 134.04,272.84 133.07,275.27 132.09,272.84 			"/>
		</g>
	</g>
</g>
</svg>
