<?xml version="1.0" encoding="utf-8"?>
<!-- Generator: Adobe Illustrator 27.3.1, SVG Export Plug-In . SVG Version: 6.00 Build 0)  -->
<svg version="1.1" id="Layer_1" xmlns="http://www.w3.org/2000/svg" xmlns:xlink="http://www.w3.org/1999/xlink" x="0px" y="0px"
	 viewBox="0 0 1080 463" style="enable-background:new 0 0 1080 463;" xml:space="preserve">
<style type="text/css">
	.st0{fill:#FFFFFF;}
	.st1{fill:url(#SVGID_1_);}
	.st2{fill:url(#SVGID_00000047738906655151149650000011445911125444682883_);}
	.st3{fill:url(#SVGID_00000027566505644060135640000012247546293593655170_);}
	.st4{fill:url(#SVGID_00000091699431150784042340000014020797040568435120_);}
	.st5{fill:url(#SVGID_00000006696662765157618610000017614175770653206164_);}
	.st6{fill:url(#SVGID_00000109734729463206794140000001553529347106239912_);}
	.st7{fill:url(#SVGID_00000031921016909847523620000011181480454548232379_);}
	.st8{fill:url(#SVGID_00000103950970866572713590000010396478348084853648_);}
	.st9{fill:url(#SVGID_00000009578020448860506100000006066826755322872224_);}
	.st10{fill:#F1662C;}
	.st11{fill:#EF4B45;}
	.st12{fill:#EC1A74;}
	.st13{fill:#FF946E;}
	.st14{fill:#FF8D8D;}
	.st15{fill:#FF8DC4;}
</style>
<g>
	<g>
		<g>
			<path d="M1071.71,414.27c-0.89-0.89-1.34-1.97-1.34-3.24c0-1.27,0.45-2.37,1.34-3.29c0.89-0.92,1.94-1.38,3.15-1.38
				c1.21,0,2.24,0.46,3.1,1.38c0.86,0.92,1.29,2.02,1.29,3.29c0,1.27-0.43,2.35-1.29,3.24c-0.86,0.89-1.89,1.34-3.1,1.34
				C1073.65,415.6,1072.6,415.16,1071.71,414.27z"/>
			<path d="M1070.66,373c-0.32-0.32-0.22-0.48,0.29-0.48c3.05,0.7,5.32,2.38,6.81,5.05c1.49,2.67,2.24,5.66,2.24,8.96
				c-0.32,4.64-2.03,8.29-5.15,10.96c-3.11,2.67-6.86,3.88-11.25,3.62c-3.94-0.32-7.32-1.81-10.15-4.48
				c-2.83-2.67-4.24-6.13-4.24-10.39c0-2.92,0.76-5.54,2.29-7.86c1.52-2.32,3.65-4.02,6.39-5.1c0.26-0.06,0.48,0.03,0.67,0.29
				c3.31,3.81,5.08,5.91,5.34,6.29c0.06,0.06,0.1,0.16,0.1,0.29c0,0.38-0.22,0.57-0.67,0.57c-2.73-0.19-5.49,0.21-8.29,1.19
				c-2.79,0.99-4.26,2.21-4.38,3.67c-0.06,1.33,0.7,2.48,2.29,3.43c1.59,0.95,3.27,1.56,5.05,1.81c4.13,0.57,7.64-0.18,10.53-2.24
				c2.89-2.06,4.34-4.94,4.34-8.63C1072.85,377.16,1072.12,374.84,1070.66,373z"/>
			<path d="M1049.79,349.94c1.21-4.13,3.67-7.28,7.39-9.44c3.72-2.16,7.61-2.67,11.67-1.52c3.37,0.95,6.07,2.81,8.1,5.57
				c2.03,2.76,3.05,5.86,3.05,9.29c0,1.46-0.19,2.89-0.57,4.29c-1.14,4.13-3.59,7.28-7.34,9.44c-3.75,2.16-7.66,2.67-11.72,1.52
				c-3.37-0.95-6.07-2.81-8.1-5.57c-2.03-2.76-3.05-5.89-3.05-9.39C1049.22,352.73,1049.41,351.33,1049.79,349.94z M1078.76,353.94
				c0-1.14-1.35-2.02-4.05-2.62c-2.7-0.6-6.08-0.87-10.15-0.81c-4.26,0.06-7.67,0.37-10.25,0.91c-2.57,0.54-3.83,1.45-3.76,2.72
				c0,2.42,4.7,3.56,14.11,3.43C1074.06,357.43,1078.76,356.23,1078.76,353.94z"/>
			<path d="M1079.14,319.82v15.25c-2.22-1.21-4.42-1.81-6.58-1.81h-14.39c-2.16,0-4.35,0.61-6.58,1.81l-3.34-13.34h6.39
				c-3.11-1.21-4.89-3.62-5.34-7.24c0-0.13-0.01-0.32-0.05-0.57c-0.03-0.25-0.05-0.48-0.05-0.67c0-2.1,0.48-4.08,1.43-5.96
				c0.95-1.87,2.45-3.19,4.48-3.96c-3.94-1.4-5.91-4.48-5.91-9.25c0-7.56,4.54-11.34,13.63-11.34h10.2c2.03,0,4.07-0.6,6.1-1.81
				v7.43c0,3.75-2.25,5.62-6.77,5.62h-12.3c-5.53,0-8.35,1.3-8.48,3.91c-0.06,1.21,0.59,2.29,1.95,3.24
				c1.37,0.95,3.61,1.43,6.72,1.43h12.77c2.03,0,4.07-0.6,6.1-1.81v7.43c0,3.81-2.25,5.72-6.77,5.72h-12.3h-0.67
				c-0.38,0-0.73,0-1.05,0c-0.32,0-0.75,0.02-1.29,0.05c-0.54,0.03-1.03,0.08-1.48,0.14c-0.44,0.06-0.91,0.19-1.38,0.38
				c-0.48,0.19-0.87,0.4-1.19,0.62c-0.32,0.22-0.59,0.52-0.81,0.91c-0.22,0.38-0.33,0.83-0.33,1.34c0,0.06,0.02,0.16,0.05,0.29
				c0.03,0.13,0.05,0.22,0.05,0.29c0.26,1.21,1.35,2.16,3.29,2.86c1.94,0.7,3.95,0.98,6.05,0.86h11.25
				C1074.73,321.63,1076.92,321.03,1079.14,319.82z"/>
		</g>
	</g>
	<g>
		<path d="M147.42,364.74c2.53,21.23-2.6,38.49-15.36,51.76c-12.77,13.27-28.38,21.42-46.83,24.46c-5.06,0.5-9.35,0.76-12.89,0.76
			c-9.61,0-18.77-1.08-27.49-3.22c-8.72-2.15-17.25-6.26-25.59-12.32c-8.34-6.07-13.91-13.78-16.68-23.13
			c-3.54-11.63-2.41-22.05,3.41-31.28c5.81-9.22,13.77-14.34,23.89-15.36c1.26-0.25,3.16-0.38,5.69-0.38
			c6.82,0,12.51,1.33,17.06,3.98c4.55,2.65,7.33,5.37,8.34,8.15c0.5,0.76,0.25,1.39-0.76,1.9c-1.77,0.76-3.73,2.15-5.88,4.17
			c-2.15,2.03-4.17,5.69-6.07,11c-1.9,5.31-2.34,11.38-1.33,18.2c1.52,9.6,5.37,17.31,11.57,23.13c6.19,5.81,13.33,8.72,21.42,8.72
			c0.5,0,1.2-0.06,2.09-0.19c0.88-0.13,1.45-0.19,1.71-0.19c11.12-1.77,19.02-7.84,23.7-18.2c4.68-10.37,5.37-20.6,2.09-30.72
			c-3.79-10.86-14.66-21.1-32.61-30.71c-4.05-2.27-9.17-4.99-15.36-8.15c-6.2-3.16-11.32-5.88-15.36-8.15l-6.07-3.04
			c-18.71-11.12-27.81-25.53-27.3-43.23c0.5-14.66,7.21-25.78,20.1-33.37c12.89-7.58,28.18-11.37,45.88-11.37
			c11.37,0,22.24,1.9,32.61,5.69c10.36,3.79,18.07,8.6,23.13,14.41c0.76,1.27,0.76,2.53,0,3.79c-1.27,1.52-4.68,6.82-10.24,15.92
			c-5.56,9.1-9.23,14.66-11,16.68c0,0.26-0.26,0.38-0.76,0.38c-0.76,0-1.14-0.38-1.14-1.14c-0.25-4.8-0.57-8.97-0.95-12.51
			c-0.38-3.54-1.27-7.9-2.65-13.08c-1.39-5.18-3.29-9.41-5.69-12.7c-2.41-3.28-5.88-6.19-10.43-8.72c-4.55-2.52-9.99-3.79-16.3-3.79
			c-6.82,0-13.02,1.58-18.58,4.74c-5.56,3.16-8.47,7.9-8.72,14.22c-0.25,4.55,1.01,8.41,3.79,11.56c2.78,3.16,7.83,6.77,15.17,10.81
			c10.86,5.56,26.79,14.79,47.78,27.68C134.53,334.53,145.39,348.81,147.42,364.74z"/>
		<path d="M157.65,283.21h29.58c14.91,0,22.37,9.1,22.37,27.3v49.29c0,21.49,5.94,32.23,17.82,32.23
			c5.56-0.76,9.73-4.74,12.51-11.95c2.78-7.2,3.92-15.1,3.41-23.7v-46.64c0-8.34-2.4-17.19-7.2-26.54h53.84l-0.38,84.18
			c0,8.34,2.4,17.19,7.2,26.54l-53.09,13.27l-0.38-24.65c-5.56,12.39-15.55,18.96-29.95,19.72c-16.44,0-28.63-5.05-36.59-15.17
			c-7.96-10.11-11.94-23.63-11.94-40.57v-38.68C164.86,300.03,162.45,291.81,157.65,283.21z"/>
		<path d="M311.98,287v-1.14c0-1.77,0.76-2.65,2.27-2.65h14.41c3.28-28.82,19.34-43.98,48.16-45.5c0.5,0,1.26-0.06,2.27-0.19
			c1.01-0.12,1.9-0.19,2.65-0.19c9.6,0,19.21,1.9,28.82,5.69c9.6,3.79,16.55,8.97,20.86,15.55c0.5,1.01,0.5,1.9,0,2.65
			c-1.27,1.52-5.18,5.69-11.76,12.51c-6.58,6.82-10.75,11.25-12.51,13.27c-1.01,1.01-1.52,0.89-1.52-0.38
			c-0.25-8.59-2.78-17.38-7.58-26.35c-4.8-8.97-10.75-13.71-17.82-14.22h-1.9c-1.77,0-3.35,0.25-4.74,0.76
			c-1.39,0.51-2.46,1.33-3.22,2.46c-0.76,1.14-1.39,2.27-1.9,3.41c-0.51,1.14-0.76,2.65-0.76,4.55c0,1.9,0.06,3.54,0.19,4.93
			c0.13,1.39,0.44,3.22,0.95,5.5c0.5,2.27,0.88,4.05,1.14,5.31c0.25,1.27,0.69,3.1,1.33,5.5c0.63,2.41,1.07,3.98,1.33,4.74h14.03
			c1.52,0,2.27,0.89,2.27,2.65V287c0,1.77-0.76,2.66-2.27,2.66h-12.89v83.42c0,7.84,2.4,16.56,7.2,26.16h-60.67
			c4.8-8.85,7.21-17.57,7.21-26.16v-76.22c0-1.01,0.06-2.27,0.19-3.79c0.13-1.52,0.19-2.65,0.19-3.41h-13.65
			C312.74,289.66,311.98,288.78,311.98,287z"/>
		<path d="M477.68,373.08c0,8.6,2.4,17.32,7.2,26.16h-60.67c4.8-8.85,7.2-17.57,7.2-26.16v-51.57c0-7.83-2.4-16.55-7.2-26.16
			c2.53,0.25,5.56,0.38,9.1,0.38c21.48,0,36.15-4.55,43.99-13.65L477.68,373.08z M470.66,273.35c-4.68,4.81-10.3,7.2-16.87,7.2
			c-6.58,0-12.27-2.33-17.07-7.01c-4.8-4.68-7.2-10.3-7.2-16.87c0-6.57,2.4-12.19,7.2-16.87c4.8-4.68,10.49-7.02,17.07-7.02
			c6.57,0,12.19,2.34,16.87,7.02c4.68,4.68,7.01,10.3,7.01,16.87C477.68,262.99,475.34,268.55,470.66,273.35z"/>
		<path d="M508.77,310.13c-4.81-11.88-10.24-20.85-16.31-26.92h60.67c-3.54,6.58-2.91,15.55,1.9,26.92
			c6.57,16.44,14.79,34.64,24.65,54.6c2.78-6.57,5.81-13.84,9.1-21.8c3.28-7.96,6.19-15.1,8.72-21.42
			c2.53-6.32,4.04-10.11,4.55-11.38c2.52-6.32,3.98-11,4.36-14.03s-0.45-7.33-2.46-12.89h24.27c-5.56,5.56-11,14.54-16.3,26.92
			l-38.3,91.38c-7.34,17.69-14.1,31.47-20.29,41.33c-6.2,9.86-12.58,15.92-19.15,18.2c-3.54,1.01-7.33,1.52-11.37,1.52
			c-9.1,0-16.06-2.4-20.86-7.2c-1.01-1.01-1.14-2.03-0.38-3.03c0.76-1.27,4.11-8.53,10.05-21.8c5.94-13.27,9.41-20.92,10.43-22.94
			c0.25-0.76,0.76-0.76,1.52,0c2.52,14.41,5.18,23.13,7.96,26.16c1.52,1.77,3.41,2.65,5.69,2.65c1.52,0,3.16-0.38,4.93-1.14
			c5.05-2.27,12.26-13.65,21.62-34.13l-10.62,4.55c-0.51,0.25-1.14,0.38-1.9,0.38c-2.03,0-3.29-0.89-3.79-2.65
			c-1.77-4.04-5.69-13.4-11.75-28.06c-6.07-14.66-11.75-28.37-17.06-41.14C513.32,321.45,510.03,313.42,508.77,310.13z"/>
		<path d="M750.68,399.62h-29.58c-12.64,0-19.85-6.57-21.61-19.72c-3.29,5.56-8.15,10.62-14.6,15.17
			c-6.45,4.55-13.84,7.07-22.18,7.58c-24.27,0-36.4-9.35-36.4-28.06c0-9.6,3.28-18.2,9.86-25.78c6.57-7.58,14.53-13.21,23.89-16.87
			c9.35-3.66,17.19-6.38,23.51-8.15c6.32-1.77,11.37-2.78,15.17-3.03c2.53-21.99-3.16-32.99-17.06-32.99h-2.27
			c-7.08,0.76-12.7,4.81-16.87,12.13c-4.17,7.33-6.39,15.17-6.64,23.51c0,1.27-0.51,1.39-1.52,0.38c-1.27-2.02-3.86-5.56-7.77-10.62
			c-3.92-5.05-6.13-7.96-6.64-8.72c-0.76-0.76-0.76-1.77,0-3.03c4.55-6.82,11.12-12.07,19.72-15.74c8.59-3.66,16.55-5.5,23.89-5.5
			c6.82,0,13.27,0.7,19.34,2.09c6.07,1.39,12.38,3.86,18.96,7.4c6.57,3.54,11.81,9.29,15.74,17.25c3.92,7.96,5.88,17.63,5.88,29.01
			v38.68C743.48,381.68,745.88,390.02,750.68,399.62z M678.26,387.11c0.5,0.26,1.38,0.38,2.65,0.38c6.07,0,12.13-4.04,18.2-12.13
			c-0.25-0.76-0.38-1.9-0.38-3.41v-47.78c-6.32,1.77-12.89,6.07-19.72,12.89c-6.83,6.83-10.62,15.93-11.38,27.3
			C666.63,377.76,670.17,385.34,678.26,387.11z"/>
		<path d="M762.06,289.66l53.09-13.27v23.89c6.07-12.64,16.17-19.34,30.33-20.1c16.17,0,28.31,5.18,36.4,15.55
			c8.09,10.37,12.13,24.02,12.13,40.95v37.92c0,8.34,2.4,16.56,7.2,24.65h-29.58c-14.92,0-22.37-9.1-22.37-27.3v-48.92
			c0-21.48-5.94-32.23-17.82-32.23c-5.56,0.76-9.74,4.74-12.51,11.94c-2.78,7.2-3.92,15.23-3.41,24.08v46.26
			c0,8.6,2.4,17.32,7.2,26.16h-60.67c4.8-8.85,7.21-17.57,7.21-26.16v-57.26C769.26,307.23,766.86,298.51,762.06,289.66z"/>
		<path d="M1038.86,399.62h-29.58c-12.64,0-19.85-6.57-21.61-19.72c-3.29,5.56-8.15,10.62-14.6,15.17s-13.84,7.07-22.18,7.58
			c-24.27,0-36.4-9.35-36.4-28.06c0-9.6,3.28-18.2,9.86-25.78c6.57-7.58,14.53-13.21,23.89-16.87c9.35-3.66,17.19-6.38,23.51-8.15
			c6.32-1.77,11.38-2.78,15.17-3.03c2.52-21.99-3.17-32.99-17.06-32.99h-2.27c-7.08,0.76-12.7,4.81-16.87,12.13
			c-4.17,7.33-6.39,15.17-6.64,23.51c0,1.27-0.51,1.39-1.52,0.38c-1.27-2.02-3.86-5.56-7.77-10.62c-3.92-5.05-6.13-7.96-6.63-8.72
			c-0.76-0.76-0.76-1.77,0-3.03c4.55-6.82,11.12-12.07,19.72-15.74c8.59-3.66,16.55-5.5,23.89-5.5c6.83,0,13.27,0.7,19.34,2.09
			c6.07,1.39,12.38,3.86,18.96,7.4c6.57,3.54,11.81,9.29,15.74,17.25c3.92,7.96,5.88,17.63,5.88,29.01v38.68
			C1031.66,381.68,1034.05,390.02,1038.86,399.62z M966.43,387.11c0.5,0.26,1.39,0.38,2.65,0.38c6.07,0,12.13-4.04,18.2-12.13
			c-0.26-0.76-0.38-1.9-0.38-3.41v-47.78c-6.32,1.77-12.89,6.07-19.72,12.89c-6.83,6.83-10.62,15.93-11.38,27.3
			C954.8,377.76,958.34,385.34,966.43,387.11z"/>
	</g>
</g>
<g>
	<g>
		<linearGradient id="SVGID_1_" gradientUnits="userSpaceOnUse" x1="176.6025" y1="221.1144" x2="176.6025" y2="14.1979">
			<stop  offset="0" style="stop-color:#EC1A74"/>
			<stop  offset="1" style="stop-color:#F1662C"/>
		</linearGradient>
		<path class="st1" d="M258.1,71.61c-17.89-18.8-46.78-19.26-65.28-1.04c-5.3,5.22-10.58,10.45-16.53,16.32
			c-5.42-5.62-10.24-10.79-15.26-15.79c-19.57-19.5-50.21-18.3-67.67,2.56c-14.9,17.82-13.94,44.02,2.61,61.01
			c5.35,5.49,10.76,10.94,16.19,16.35l0.11,0.11c2.46,2.45,4.91,4.9,7.38,7.35c0.61,0.61,1.23,1.22,1.84,1.83
			c3.08,3.06,6.15,6.11,9.23,9.17c2.53,2.51,5.05,5.01,7.57,7.54c12.55,12.57,25.07,25.17,38.46,38.64
			c8.87-9.02,17.11-17.51,25.47-25.89c18.14-18.18,36.46-36.17,54.47-54.49C274.44,117.24,274.9,89.24,258.1,71.61z M130.97,132.47
			l-0.12-0.12c-4.85-4.86-9.7-9.72-14.53-14.6c-9.99-10.05-9.19-23.99,1.67-31.09c7.47-4.9,17.19-3.99,23.92,2.57
			c5.41,5.28,10.76,10.62,16.11,15.96c0.05,0.05,0.11,0.11,0.15,0.15L130.97,132.47z M238.73,115.73
			c-11.61,12.11-23.66,23.8-35.51,35.67c-7.1,7.12-14.17,14.27-21.28,21.39c-1.23,1.23-2.51,2.41-3.87,3.68
			c-0.46,0.42-0.92,0.85-1.4,1.31c-0.42-0.38-0.82-0.73-1.21-1.07c-0.97-0.84-1.81-1.57-2.61-2.32c-0.16-0.15-0.32-0.3-0.47-0.45
			v-0.01c-3.84-3.84-7.68-7.69-11.53-11.53c-3.85-3.84-7.69-7.69-11.53-11.53l28.08-28.08c6.27-6.19,12.41-12.24,18.54-18.31
			c5.34-5.26,10.47-10.76,16.04-15.77c7.76-6.98,19.18-6.67,26.27,0.31C245.6,96.22,246.12,108.01,238.73,115.73z"/>
		
			<linearGradient id="SVGID_00000164485115932309568920000010459749130656291979_" gradientUnits="userSpaceOnUse" x1="191.2688" y1="221.1144" x2="191.2688" y2="14.1979">
			<stop  offset="0" style="stop-color:#EC1A74"/>
			<stop  offset="1" style="stop-color:#F1662C"/>
		</linearGradient>
		<path style="fill:url(#SVGID_00000164485115932309568920000010459749130656291979_);" d="M258.1,71.61
			c-17.89-18.8-46.78-19.26-65.28-1.04c-5.3,5.22-10.58,10.45-16.53,16.32L158,105.19l-27.16,27.16l-18.67,18.67l0.11,0.11
			c2.46,2.45,4.91,4.9,7.38,7.35c0.61,0.61,1.23,1.22,1.84,1.83c3.08,3.06,6.16,6.11,9.23,9.17c2.53,2.51,5.05,5.01,7.57,7.54
			c12.55,12.57,25.07,25.17,38.46,38.64c8.87-9.02,17.11-17.51,25.47-25.89c18.14-18.18,36.46-36.17,54.47-54.49
			C274.44,117.24,274.9,89.24,258.1,71.61z M238.73,115.73c-11.61,12.11-23.66,23.8-35.51,35.67c-7.1,7.12-14.17,14.27-21.28,21.39
			c-1.23,1.23-2.51,2.41-3.87,3.68c-0.46,0.42-0.92,0.85-1.4,1.3c-0.42-0.38-0.82-0.73-1.21-1.06c-0.97-0.84-1.81-1.57-2.61-2.32
			c-0.16-0.15-0.32-0.3-0.47-0.46c-3.84-3.84-7.68-7.69-11.53-11.53c-3.84-3.84-7.69-7.69-11.53-11.53l28.08-28.08
			c6.27-6.19,12.41-12.24,18.54-18.31c5.34-5.26,10.47-10.76,16.04-15.77c7.76-6.98,19.18-6.67,26.27,0.31
			C245.6,96.22,246.12,108.01,238.73,115.73z"/>
	</g>
	<g>
		
			<linearGradient id="SVGID_00000101072480652862075340000015364513968762130331_" gradientUnits="userSpaceOnUse" x1="232.7044" y1="221.1144" x2="232.7044" y2="14.1979">
			<stop  offset="0" style="stop-color:#EC1A74"/>
			<stop  offset="1" style="stop-color:#F1662C"/>
		</linearGradient>
		<path style="fill:url(#SVGID_00000101072480652862075340000015364513968762130331_);" d="M256.66,24.41
			c0,3.61-0.8,7.04-2.23,10.11c-3.81-8.18-12.11-13.85-21.72-13.85c-9.61,0-17.91,5.67-21.71,13.85c-1.44-3.07-2.23-6.5-2.23-10.11
			c0-13.23,10.72-23.95,23.95-23.95C245.93,0.46,256.66,11.18,256.66,24.41z"/>
		
			<linearGradient id="SVGID_00000160903063403265228180000009843057428901451431_" gradientUnits="userSpaceOnUse" x1="120.5017" y1="221.1144" x2="120.5017" y2="14.1979">
			<stop  offset="0" style="stop-color:#EC1A74"/>
			<stop  offset="1" style="stop-color:#F1662C"/>
		</linearGradient>
		<circle style="fill:url(#SVGID_00000160903063403265228180000009843057428901451431_);" cx="120.5" cy="24.41" r="23.95"/>
	</g>
</g>
<g>
	<path d="M397.87,61.27h41.93c-10.33,14.36-15.49,41.43-15.49,81.22l0.38,65.73h-21.91L325.34,89.98
		c-0.76,6.04-1.13,11.08-1.13,15.11v26.06c0,5.29,0.88,11.9,2.64,19.83c1.76,7.93,5.79,17.75,12.09,29.46
		c6.29,11.71,14.36,20.97,24.18,27.76h-65.35c13.34-21.4,20.02-50.49,20.02-87.26v-15.86c0-6.8-1.7-14.86-5.1-24.18
		c-3.4-9.31-8.38-15.87-14.92-19.64h65.73l54.02,82.73C415.75,102.7,409.2,75.12,397.87,61.27z"/>
	<path d="M443.58,63.16c0-9.57,3.34-17.12,10.01-22.66c6.67-5.54,15.3-8.31,25.88-8.31c2.77,0,4.91,0.13,6.42,0.38
		c11.33,1.26,25.05,6.74,41.18,16.43c16.11,9.7,28.71,14.54,37.77,14.54c2.27,0,4.02-0.12,5.29-0.38c0.25,0,1.14-0.19,2.65-0.57
		s3.33-0.76,5.48-1.13c2.14-0.38,3.84-0.69,5.1-0.94c-5.04,8.56-7.55,37.53-7.55,86.88c22.41-37.52,40.04-57.54,52.88-60.06
		c1-0.25,2.89-0.38,5.67-0.38c9.07,0,16.24,3.4,21.53,10.2c0.5,0.76,0.5,1.77,0,3.02c-1.01,1.51-4.79,7.24-11.33,17.19
		c-6.55,9.95-10.33,15.68-11.33,17.19c-1.01,0.51-1.51,0.38-1.51-0.38c0-1,0-3.02,0-6.04s-0.07-5.22-0.19-6.61
		c-0.13-1.38-0.32-3.27-0.56-5.67c-0.25-2.39-0.57-4.21-0.95-5.48c-0.38-1.26-0.94-2.58-1.7-3.97c-0.76-1.38-1.77-2.39-3.02-3.02
		c-1.27-0.63-2.78-0.94-4.53-0.94c-0.25,0-0.63,0.06-1.14,0.19c-0.51,0.13-1.01,0.19-1.51,0.19c-5.04,0.76-12.59,8.82-22.67,24.18
		c27.45,36.02,43.44,56.41,47.97,61.19c7.55,8.06,13.98,14.61,19.27,19.64h-68.75c3.02-2.51,3.52-5.41,1.51-8.69
		c-0.25-0.5-1.39-2.14-3.4-4.91c-2.02-2.77-4.6-6.29-7.74-10.58c-3.15-4.28-5.73-7.8-7.74-10.58c1,21.66,3.27,33.12,6.8,34.37H522.9
		c4.78-3.02,7.18-22.29,7.18-57.79V92.24c0-12.59-2.4-22.98-7.18-31.16c-4.79-8.18-11.21-12.78-19.27-13.79
		c-0.51,0-1.01-0.06-1.51-0.19c-0.51-0.12-0.88-0.19-1.13-0.19c-3.78,0-6.61,1.13-8.5,3.4c-1.89,2.27-2.83,5.04-2.83,8.31
		c0,2.77,0.81,5.29,2.46,7.55c1.64,2.27,3.84,3.4,6.61,3.4c0.76,0,1.13,0.51,1.13,1.51c-0.51,3.78-3.4,8-8.69,12.66
		c-5.29,4.66-11.96,6.99-20.02,6.99c-7.31,0-13.73-2.7-19.27-8.12C446.35,77.2,443.58,70.71,443.58,63.16z M507.04,207.83H446.6
		c4.78-9.31,7.18-18.13,7.18-26.44v-51.37c0-7.3-2.27-15.99-6.8-26.06c2.27,0.25,5.29,0.38,9.07,0.38c20.9,0,35.51-4.53,43.82-13.6
		v90.66C499.86,188.95,502.25,197.76,507.04,207.83z"/>
	<path d="M792.24,208.21h-29.47c-12.59,0-19.77-6.55-21.53-19.64c-3.28,5.54-8.12,10.58-14.54,15.11
		c-6.42,4.53-13.79,7.05-22.1,7.55c-24.18,0-36.26-9.31-36.26-27.95c0-9.57,3.27-18.13,9.82-25.69c6.55-7.55,14.48-13.16,23.8-16.81
		c9.31-3.65,17.12-6.36,23.42-8.12c6.29-1.76,11.33-2.77,15.11-3.02c2.51-21.91-3.15-32.87-17-32.87h-2.27
		c-7.05,0.76-12.65,4.79-16.81,12.09c-4.15,7.31-6.36,15.11-6.61,23.42c0,1.26-0.51,1.39-1.51,0.38c-1.26-2.01-3.84-5.54-7.75-10.58
		c-3.91-5.03-6.11-7.93-6.61-8.69c-0.76-0.76-0.76-1.76,0-3.02c4.53-6.8,11.08-12.02,19.64-15.68c8.56-3.65,16.49-5.48,23.8-5.48
		c6.8,0,13.22,0.7,19.27,2.08c6.04,1.39,12.34,3.84,18.89,7.37c6.55,3.53,11.77,9.25,15.68,17.19c3.9,7.93,5.86,17.57,5.86,28.9
		v38.53C785.06,190.33,787.45,198.64,792.24,208.21z M720.09,195.75c0.5,0.25,1.38,0.38,2.64,0.38c6.04,0,12.09-4.02,18.13-12.09
		c-0.25-0.76-0.38-1.89-0.38-3.4v-47.6c-6.3,1.76-12.84,6.04-19.64,12.84c-6.8,6.8-10.58,15.87-11.33,27.2
		C708.5,186.43,712.03,193.99,720.09,195.75z"/>
	<path d="M1009.44,136.06c3.27,3.53,5.79,9.51,7.56,17.94c1.76,8.44,2.14,17.19,1.13,26.25c-1.77,16.62-8.63,29.71-20.59,39.28
		c-11.96,9.57-24.74,14.73-38.34,15.49c-18.38,0-33.68-4.53-45.89-13.6c-12.22-9.07-18.57-22.54-19.08-40.42v-49.48
		c0-21.4-5.92-32.11-17.75-32.11c-5.54,0.76-9.7,4.79-12.47,12.09c-2.77,7.31-3.91,15.24-3.4,23.8v46.46
		c0,8.56,2.39,17.25,7.18,26.06h-60.44c4.78-8.81,7.18-17.5,7.18-26.06V87.71c0-8.31-2.39-17.12-7.18-26.44l52.88-14.73l0.38,61.95
		c5.79-12.34,15.74-18.89,29.84-19.64c16.11,0,28.2,5.17,36.26,15.49c8.06,10.33,12.09,23.93,12.09,40.8v50.24
		c0,22.67,6.42,34,19.26,34c5.79,0,10.45-3.34,13.98-10.01c3.52-6.67,5.29-15.17,5.29-25.5c0-7.05-1.45-12.9-4.34-17.56
		c-2.9-4.66-5.61-7.68-8.12-9.07c-2.52-1.38-4.79-2.2-6.8-2.46c-1.26-0.5-1.39-1.26-0.38-2.27c4.28-3.02,12.9-8.06,25.88-15.11
		C996.53,140.35,1005.15,136.57,1009.44,136.06z"/>
</g>
</svg>
