<?xml version="1.0" encoding="utf-8"?>
<!-- Generator: Adobe Illustrator 27.3.1, SVG Export Plug-In . SVG Version: 6.00 Build 0)  -->
<svg version="1.1" id="Layer_1" xmlns="http://www.w3.org/2000/svg" xmlns:xlink="http://www.w3.org/1999/xlink" x="0px" y="0px"
	 viewBox="0 0 87.2 100" style="enable-background:new 0 0 87.2 100;" xml:space="preserve">
<style type="text/css">
	.st0{fill:url(#SVGID_1_);}
	.st1{fill:url(#SVGID_00000000187524873593457500000005267092427534349957_);}
	.st2{fill:url(#SVGID_00000011733772723579396540000010917799920610506114_);}
</style>
<g>
	<linearGradient id="SVGID_1_" gradientUnits="userSpaceOnUse" x1="43.5759" y1="113" x2="43.5759" y2="10.8237">
		<stop  offset="0" style="stop-color:#C7203E"/>
		<stop  offset="1" style="stop-color:#800412"/>
	</linearGradient>
	<path class="st0" d="M82.8,34.7c-0.4-0.5-0.9-1.1-1.4-1.6c-8.3-8.7-21.7-9-30.3-0.5c-2.5,2.4-4.9,4.8-7.7,7.6
		c-2.5-2.6-4.8-5-7.1-7.3C27.2,23.8,13,24.3,4.9,34C-2,42.3-1.6,54.5,6.1,62.4c2.5,2.5,5,5.1,7.5,7.6l0,0c1.1,1.1,2.3,2.3,3.4,3.4
		c0.3,0.3,0.6,0.6,0.9,0.9c1.4,1.4,2.9,2.8,4.3,4.3c1.2,1.2,2.3,2.3,3.5,3.5c5.8,5.8,11.6,11.7,17.9,18c0,0,0,0,0,0c0,0,0,0,0,0
		c4.1-4.2,7.9-8.1,11.8-12c8.4-8.4,16.9-16.8,25.3-25.3C88.5,54.8,89.2,42.9,82.8,34.7z M56,70.2c-3.3,3.3-6.6,6.6-9.9,9.9
		c-0.6,0.6-1.2,1.1-1.8,1.7c-0.2,0.2-0.4,0.4-0.7,0.6c-0.2-0.2-0.4-0.3-0.6-0.5c-0.5-0.4-0.8-0.7-1.2-1.1c-0.1-0.1-0.1-0.2-0.2-0.2
		c-1.8-1.8-3.6-3.6-5.4-5.4c-1.8-1.8-3.6-3.6-5.4-5.4l13-13c2.9-2.9,5.8-5.7,8.6-8.5c2.5-2.5,4.9-5,7.4-7.3
		c3.6-3.2,8.9-3.1,12.2,0.2c1.7,1.7,2.6,3.9,2.7,6.1c0,1.7-0.4,3.4-1.3,4.9c-0.3,0.5-0.7,1-1.1,1.4C67.1,59.2,61.5,64.6,56,70.2z
		 M16.3,40.1c3.5-2.3,8-1.9,11.1,1.2c2.5,2.5,5,4.9,7.5,7.4L22.3,61.3c-2.3-2.3-4.5-4.5-6.8-6.8C10.9,49.8,11.3,43.4,16.3,40.1z"/>
	
		<linearGradient id="SVGID_00000157293900164665259580000015037896271993337229_" gradientUnits="userSpaceOnUse" x1="69.66" y1="113" x2="69.66" y2="10.8237">
		<stop  offset="0" style="stop-color:#C7203E"/>
		<stop  offset="1" style="stop-color:#800412"/>
	</linearGradient>
	<path style="fill:url(#SVGID_00000157293900164665259580000015037896271993337229_);" d="M69.7,9.4c4.5,0,8.3,2.6,10.1,6.4
		c0.7-1.4,1-3,1-4.7C80.8,5,75.8,0,69.7,0c-6.1,0-11.1,5-11.1,11.1c0,1.7,0.4,3.3,1,4.7C61.3,12,65.2,9.4,69.7,9.4z"/>
	
		<linearGradient id="SVGID_00000135675919601493979300000009226613079220163507_" gradientUnits="userSpaceOnUse" x1="17.52" y1="113" x2="17.52" y2="10.8237">
		<stop  offset="0" style="stop-color:#C7203E"/>
		<stop  offset="1" style="stop-color:#800412"/>
	</linearGradient>
	<circle style="fill:url(#SVGID_00000135675919601493979300000009226613079220163507_);" cx="17.5" cy="11.1" r="11.1"/>
</g>
</svg>
