<?xml version="1.0" encoding="utf-8"?>
<!-- Generator: Adobe Illustrator 27.3.1, SVG Export Plug-In . SVG Version: 6.00 Build 0)  -->
<svg version="1.1" id="Layer_1" xmlns="http://www.w3.org/2000/svg" xmlns:xlink="http://www.w3.org/1999/xlink" x="0px" y="0px"
	 viewBox="0 0 1080 1080" style="enable-background:new 0 0 1080 1080;" xml:space="preserve">
<style type="text/css">
	.st0{fill:#FFFFFF;}
	.st1{fill:url(#SVGID_1_);}
	.st2{fill:url(#SVGID_00000031199280614666083720000001396439085061930667_);}
	.st3{fill:url(#SVGID_00000154390622286298098040000009352213090745609386_);}
	.st4{fill:url(#SVGID_00000129188382690738947760000000715864847532640430_);}
	.st5{fill:url(#SVGID_00000064328409515720773560000007792767858253463942_);}
	.st6{fill:url(#SVGID_00000158011156322250235840000003140320288702860939_);}
	.st7{fill:url(#SVGID_00000002347772529535922660000013814137485384478368_);}
	.st8{fill:url(#SVGID_00000166657704307558794970000003239118883164278969_);}
	.st9{fill:url(#SVGID_00000056423508214357377410000007361497543586348164_);}
	.st10{fill:#F1662C;}
	.st11{fill:#EF4B45;}
	.st12{fill:#EC1A74;}
	.st13{fill:#FF946E;}
	.st14{fill:#FF8D8D;}
	.st15{fill:#FF8DC4;}
</style>
<path class="st0" d="M540,1080L540,1080C241.77,1080,0,838.23,0,540v0C0,241.77,241.77,0,540,0h0c298.23,0,540,241.77,540,540v0
	C1080,838.23,838.23,1080,540,1080z"/>
<g>
	<g>
		<linearGradient id="SVGID_1_" gradientUnits="userSpaceOnUse" x1="482.697" y1="788.66" x2="602.3245" y2="229.2254">
			<stop  offset="0" style="stop-color:#EC1A74"/>
			<stop  offset="1" style="stop-color:#F1662C"/>
		</linearGradient>
		<path class="st1" d="M824.8,412.65c-62.53-65.69-163.46-67.32-228.12-3.63c-18.54,18.26-36.99,36.53-57.75,57.04
			c-18.93-19.64-35.78-37.72-53.32-55.18c-68.38-68.14-175.47-63.96-236.47,8.96c-52.09,62.28-48.71,153.82,9.13,213.19
			c18.69,19.19,37.59,38.22,56.59,57.13l0.37,0.37c8.59,8.57,17.17,17.13,25.78,25.68c2.14,2.12,4.28,4.26,6.45,6.38
			c10.75,10.69,21.5,21.35,32.25,32.04c8.85,8.76,17.65,17.52,26.45,26.35c43.87,43.91,87.61,87.97,134.41,135.04
			c31-31.54,59.81-61.19,89.01-90.48c63.38-63.53,127.43-126.41,190.35-190.42C881.91,572.11,883.51,474.25,824.8,412.65z
			 M380.52,625.35l-0.43-0.43c-16.96-16.98-33.9-33.98-50.79-51.01c-34.91-35.11-32.1-83.82,5.82-108.65
			c26.11-17.11,60.09-13.95,83.58,8.98c18.91,18.45,37.59,37.1,56.31,55.76c0.17,0.17,0.37,0.37,0.54,0.54L380.52,625.35z
			 M757.12,566.83c-40.58,42.31-82.69,83.17-124.1,124.66c-24.81,24.88-49.53,49.88-74.37,74.73c-4.3,4.28-8.76,8.41-13.52,12.85
			c-1.6,1.47-3.22,2.99-4.89,4.56c-1.47-1.32-2.88-2.55-4.22-3.74c-3.37-2.92-6.34-5.47-9.11-8.11c-0.56-0.52-1.1-1.04-1.64-1.58
			v-0.02c-13.41-13.43-26.84-26.87-40.28-40.28c-13.45-13.43-26.87-26.87-40.3-40.3l98.14-98.12
			c21.91-21.63,43.37-42.79,64.81-63.98c18.65-18.39,36.58-37.59,56.05-55.12c27.1-24.38,67.01-23.3,91.8,1.08
			C781.13,498.67,782.95,539.86,757.12,566.83z"/>
		
			<linearGradient id="SVGID_00000157277800530669381420000002452108387570869685_" gradientUnits="userSpaceOnUse" x1="550.7112" y1="803.2039" x2="670.3387" y2="243.7693">
			<stop  offset="0" style="stop-color:#EC1A74"/>
			<stop  offset="1" style="stop-color:#F1662C"/>
		</linearGradient>
		<path style="fill:url(#SVGID_00000157277800530669381420000002452108387570869685_);" d="M824.8,412.65
			c-62.53-65.69-163.46-67.32-228.12-3.63c-18.54,18.26-36.99,36.53-57.75,57.04L475.01,530l-94.92,94.92l-65.24,65.24l0.37,0.37
			c8.59,8.57,17.17,17.13,25.78,25.68c2.14,2.12,4.28,4.26,6.45,6.38c10.75,10.69,21.52,21.35,32.25,32.04
			c8.85,8.76,17.65,17.52,26.45,26.35c43.87,43.91,87.61,87.97,134.41,135.04c31-31.54,59.81-61.19,89.01-90.48
			c63.38-63.53,127.43-126.41,190.35-190.42C881.91,572.11,883.51,474.25,824.8,412.65z M757.12,566.83
			c-40.58,42.31-82.69,83.17-124.1,124.66c-24.81,24.88-49.53,49.88-74.37,74.73c-4.3,4.28-8.76,8.41-13.52,12.85
			c-1.6,1.47-3.22,2.99-4.89,4.54c-1.47-1.32-2.88-2.55-4.22-3.72c-3.37-2.92-6.34-5.47-9.11-8.11c-0.56-0.54-1.1-1.06-1.64-1.6
			c-13.41-13.43-26.84-26.87-40.28-40.28c-13.43-13.43-26.87-26.87-40.3-40.3l98.14-98.12c21.91-21.63,43.37-42.79,64.81-63.98
			c18.65-18.39,36.58-37.59,56.05-55.12c27.1-24.38,67.01-23.3,91.8,1.08C781.13,498.67,782.95,539.86,757.12,566.83z"/>
	</g>
	<g>
		
			<linearGradient id="SVGID_00000016789282448234541860000001625992060597729428_" gradientUnits="userSpaceOnUse" x1="614.3597" y1="816.8143" x2="733.9872" y2="257.3797">
			<stop  offset="0" style="stop-color:#EC1A74"/>
			<stop  offset="1" style="stop-color:#F1662C"/>
		</linearGradient>
		<path style="fill:url(#SVGID_00000016789282448234541860000001625992060597729428_);" d="M819.76,247.7
			c0,12.63-2.79,24.62-7.81,35.34c-13.32-28.57-42.31-48.39-75.9-48.39c-33.59,0-62.58,19.81-75.88,48.39
			c-5.02-10.73-7.81-22.71-7.81-35.34c0-46.23,37.46-83.69,83.69-83.69C782.27,164.01,819.76,201.47,819.76,247.7z"/>
		
			<linearGradient id="SVGID_00000023982684509936887460000010915945969152323217_" gradientUnits="userSpaceOnUse" x1="239.3954" y1="736.6332" x2="359.023" y2="177.1987">
			<stop  offset="0" style="stop-color:#EC1A74"/>
			<stop  offset="1" style="stop-color:#F1662C"/>
		</linearGradient>
		<circle style="fill:url(#SVGID_00000023982684509936887460000010915945969152323217_);" cx="343.95" cy="247.7" r="83.7"/>
	</g>
</g>
</svg>
