<?xml version="1.0" encoding="utf-8"?>
<!-- Generator: Adobe Illustrator 27.3.1, SVG Export Plug-In . SVG Version: 6.00 Build 0)  -->
<svg version="1.1" id="Layer_1" xmlns="http://www.w3.org/2000/svg" xmlns:xlink="http://www.w3.org/1999/xlink" x="0px" y="0px"
	 viewBox="0 0 1080 1080" style="enable-background:new 0 0 1080 1080;" xml:space="preserve">
<style type="text/css">
	.st0{fill:#FFFFFF;}
	.st1{fill:#C7203E;}
</style>
<path class="st0" d="M540,1080L540,1080C241.8,1080,0,838.2,0,540l0,0C0,241.8,241.8,0,540,0l0,0c298.2,0,540,241.8,540,540l0,0
	C1080,838.2,838.2,1080,540,1080z"/>
<g>
	<g>
		<path class="st1" d="M824.8,412.6c-62.5-65.7-163.5-67.3-228.1-3.6c-18.5,18.3-37,36.5-57.8,57c-18.9-19.6-35.8-37.7-53.3-55.2
			c-68.4-68.1-175.5-64-236.5,9c-52.1,62.3-48.7,153.8,9.1,213.2c18.7,19.2,37.6,38.2,56.6,57.1l0.4,0.4
			c8.6,8.6,17.2,17.1,25.8,25.7c2.1,2.1,4.3,4.3,6.5,6.4c10.8,10.7,21.5,21.3,32.2,32c8.9,8.8,17.6,17.5,26.5,26.3
			c43.9,43.9,87.6,88,134.4,135c31-31.5,59.8-61.2,89-90.5C693,762,757,699.1,819.9,635.1C881.9,572.1,883.5,474.2,824.8,412.6z
			 M380.5,625.3l-0.4-0.4c-17-17-33.9-34-50.8-51c-34.9-35.1-32.1-83.8,5.8-108.6c26.1-17.1,60.1-14,83.6,9
			c18.9,18.5,37.6,37.1,56.3,55.8c0.2,0.2,0.4,0.4,0.5,0.5L380.5,625.3z M757.1,566.8C716.5,609.1,674.4,650,633,691.5
			c-24.8,24.9-49.5,49.9-74.4,74.7c-4.3,4.3-8.8,8.4-13.5,12.8c-1.6,1.5-3.2,3-4.9,4.6c-1.5-1.3-2.9-2.5-4.2-3.7
			c-3.4-2.9-6.3-5.5-9.1-8.1c-0.6-0.5-1.1-1-1.6-1.6v0c-13.4-13.4-26.8-26.9-40.3-40.3c-13.5-13.4-26.9-26.9-40.3-40.3l98.1-98.1
			c21.9-21.6,43.4-42.8,64.8-64c18.7-18.4,36.6-37.6,56-55.1c27.1-24.4,67-23.3,91.8,1.1C781.1,498.7,783,539.9,757.1,566.8z"/>
		<path class="st1" d="M824.8,412.6c-62.5-65.7-163.5-67.3-228.1-3.6c-18.5,18.3-37,36.5-57.8,57L475,530l-94.9,94.9l-65.2,65.2
			l0.4,0.4c8.6,8.6,17.2,17.1,25.8,25.7c2.1,2.1,4.3,4.3,6.5,6.4c10.8,10.7,21.5,21.3,32.2,32c8.9,8.8,17.6,17.5,26.5,26.3
			c43.9,43.9,87.6,88,134.4,135c31-31.5,59.8-61.2,89-90.5C693,762,757,699.1,819.9,635.1C881.9,572.1,883.5,474.2,824.8,412.6z
			 M757.1,566.8C716.5,609.1,674.4,650,633,691.5c-24.8,24.9-49.5,49.9-74.4,74.7c-4.3,4.3-8.8,8.4-13.5,12.8
			c-1.6,1.5-3.2,3-4.9,4.5c-1.5-1.3-2.9-2.5-4.2-3.7c-3.4-2.9-6.3-5.5-9.1-8.1c-0.6-0.5-1.1-1.1-1.6-1.6
			c-13.4-13.4-26.8-26.9-40.3-40.3c-13.4-13.4-26.9-26.9-40.3-40.3l98.1-98.1c21.9-21.6,43.4-42.8,64.8-64
			c18.7-18.4,36.6-37.6,56-55.1c27.1-24.4,67-23.3,91.8,1.1C781.1,498.7,783,539.9,757.1,566.8z"/>
	</g>
	<g>
		<path class="st1" d="M819.8,247.7c0,12.6-2.8,24.6-7.8,35.3c-13.3-28.6-42.3-48.4-75.9-48.4s-62.6,19.8-75.9,48.4
			c-5-10.7-7.8-22.7-7.8-35.3c0-46.2,37.5-83.7,83.7-83.7C782.3,164,819.8,201.5,819.8,247.7z"/>
		<circle class="st1" cx="344" cy="247.7" r="83.7"/>
	</g>
</g>
</svg>
