<?xml version="1.0" encoding="utf-8"?>
<!-- Generator: Adobe Illustrator 27.3.1, SVG Export Plug-In . SVG Version: 6.00 Build 0)  -->
<svg version="1.1" id="Layer_1" xmlns="http://www.w3.org/2000/svg" xmlns:xlink="http://www.w3.org/1999/xlink" x="0px" y="0px"
	 viewBox="0 0 1077.62 359.12" style="enable-background:new 0 0 1077.62 359.12;" xml:space="preserve">
<style type="text/css">
	.st0{fill-rule:evenodd;clip-rule:evenodd;fill:#FFFFFF;stroke:#B7892E;stroke-width:2;stroke-miterlimit:10;}
</style>
<g>
	<path class="st0" d="M1077.12,179.56c0,0.49-0.29,0.99-0.88,1.2c-34.84,11.62-20.07,70.39-60.61,77.28c-0.6,0.1-1.04,0.6-1.04,1.2
		v41.14c0,4.81-3.95,8.74-8.74,8.74H981.4v2.47c0,15.45-12.66,28.16-28.16,28.16h-370.6c-0.26,0-0.49,0.08-0.7,0.21l-14.17,9.86
		c-8.45,5.88-18.28,8.82-28.11,8.82c-9.86,0-19.68-2.94-28.14-8.82l-14.17-9.86c-0.21-0.13-0.47-0.21-0.7-0.21H125.6
		c-16.17,0-29.38-13.24-29.38-29.38c0-0.7-0.55-1.25-1.25-1.25h-23.2c-4.81,0-8.74-3.93-8.74-8.74v-42.18
		c-41.84-6.06-26.52-65.71-61.68-77.44c-0.57-0.21-0.86-0.7-0.86-1.2c0-0.49,0.29-0.99,0.88-1.2
		c34.84-11.62,20.07-70.39,60.61-77.28c0.6-0.1,1.04-0.6,1.04-1.2V58.75c0-4.81,3.95-8.74,8.74-8.74h24.44v-2.47
		c0-15.45,12.66-28.16,28.16-28.16h370.6c0.26,0,0.49-0.08,0.7-0.21l14.17-9.86c8.45-5.88,18.28-8.82,28.11-8.82
		c9.86,0,19.68,2.94,28.14,8.82l14.17,9.86c0.21,0.13,0.47,0.21,0.7,0.21h371.04c16.17,0,29.38,13.24,29.38,29.38
		c0,0.7,0.55,1.25,1.25,1.25h23.2c4.81,0,8.74,3.93,8.74,8.74v42.18c41.84,6.06,26.52,65.71,61.68,77.44
		C1076.84,178.57,1077.12,179.07,1077.12,179.56z"/>
</g>
</svg>
