<?xml version="1.0" encoding="utf-8"?>
<!-- Generator: Adobe Illustrator 27.3.1, SVG Export Plug-In . SVG Version: 6.00 Build 0)  -->
<svg version="1.1" id="Layer_1" xmlns="http://www.w3.org/2000/svg" xmlns:xlink="http://www.w3.org/1999/xlink" x="0px" y="0px"
	 viewBox="0 0 1080 1080" style="enable-background:new 0 0 1080 1080;" xml:space="preserve">
<style type="text/css">
	.st0{fill:#FFFFFF;}
	.st1{fill:url(#SVGID_1_);}
	.st2{fill:url(#SVGID_00000148635853412156171900000004960914142085128113_);}
	.st3{fill:url(#SVGID_00000021827526963383874790000014882854248401027234_);}
</style>
<path class="st0" d="M540,1080L540,1080C241.8,1080,0,838.2,0,540l0,0C0,241.8,241.8,0,540,0l0,0c298.2,0,540,241.8,540,540l0,0
	C1080,838.2,838.2,1080,540,1080z"/>
<g>
	<linearGradient id="SVGID_1_" gradientUnits="userSpaceOnUse" x1="539.9748" y1="914.4681" x2="539.9748" y2="175.8801">
		<stop  offset="0" style="stop-color:#C7203E"/>
		<stop  offset="1" style="stop-color:#800412"/>
	</linearGradient>
	<path class="st1" d="M824.8,412.6c-62.5-65.7-163.5-67.3-228.1-3.6c-18.5,18.3-37,36.5-57.8,57c-18.9-19.6-35.8-37.7-53.3-55.2
		c-68.4-68.1-175.5-64-236.5,9c-52.1,62.3-48.7,153.8,9.1,213.2c18.7,19.2,37.6,38.2,56.6,57.1l0.4,0.4c8.6,8.6,17.2,17.1,25.8,25.7
		c2.1,2.1,4.3,4.3,6.5,6.4c10.8,10.7,21.5,21.3,32.2,32c8.9,8.8,17.6,17.5,26.5,26.3c43.9,43.9,87.6,88,134.4,135c0,0,0,0,0-0.1
		c0,0,0,0,0.1,0.1c31-31.5,59.8-61.2,89-90.5C693,762,757,699.1,819.9,635.1C881.9,572.1,883.5,474.2,824.8,412.6z M761.6,561.6
		c-1.4,1.8-2.9,3.5-4.5,5.2C716.5,609.1,674.4,650,633,691.5c-24.8,24.9-49.5,49.9-74.4,74.7c-4.3,4.3-8.8,8.4-13.5,12.8
		c-1.6,1.5-3.2,3-4.9,4.5c-1.5-1.3-2.9-2.5-4.2-3.7c-3.4-2.9-6.3-5.5-9.1-8.1c-0.6-0.5-1.1-1.1-1.6-1.6
		c-13.4-13.4-26.8-26.9-40.3-40.3c-13.4-13.4-26.9-26.9-40.2-40.2l98-98c21.9-21.6,43.4-42.8,64.8-64c18.7-18.4,36.6-37.6,56-55.1
		c27.1-24.4,67-23.3,91.8,1.1c13.7,13.4,20.6,31.3,20.2,49.2C775.3,536.3,770.7,550,761.6,561.6z M335.1,465.3
		c26.1-17.1,60.1-14,83.6,9c18.9,18.5,37.6,37.1,56.2,55.8l-94.8,94.8v0c-17-17-33.9-34-50.8-51
		C294.4,538.8,297.2,490.1,335.1,465.3z"/>
	
		<linearGradient id="SVGID_00000170981509489564272520000001720668123315254440_" gradientUnits="userSpaceOnUse" x1="736.1" y1="914.4681" x2="736.1" y2="175.8801">
		<stop  offset="0" style="stop-color:#C7203E"/>
		<stop  offset="1" style="stop-color:#800412"/>
	</linearGradient>
	<path style="fill:url(#SVGID_00000170981509489564272520000001720668123315254440_);" d="M736.1,234.6c33.6,0,62.6,19.8,75.9,48.4
		c5-10.7,7.8-22.7,7.8-35.3c0-46.2-37.5-83.7-83.7-83.7s-83.7,37.5-83.7,83.7c0,12.6,2.8,24.6,7.8,35.3
		C673.5,254.4,702.5,234.6,736.1,234.6z"/>
	
		<linearGradient id="SVGID_00000087379029213260778820000010414570685797260955_" gradientUnits="userSpaceOnUse" x1="344" y1="914.4681" x2="344" y2="175.8801">
		<stop  offset="0" style="stop-color:#C7203E"/>
		<stop  offset="1" style="stop-color:#800412"/>
	</linearGradient>
	<circle style="fill:url(#SVGID_00000087379029213260778820000010414570685797260955_);" cx="344" cy="247.7" r="83.7"/>
</g>
</svg>
