<?xml version="1.0" encoding="utf-8"?>
<!-- Generator: Adobe Illustrator 27.3.1, SVG Export Plug-In . SVG Version: 6.00 Build 0)  -->
<svg version="1.1" id="Layer_1" xmlns="http://www.w3.org/2000/svg" xmlns:xlink="http://www.w3.org/1999/xlink" x="0px" y="0px"
	 viewBox="0 0 256.42 321.2" style="enable-background:new 0 0 256.42 321.2;" xml:space="preserve">
<style type="text/css">
	
		.st0{fill-rule:evenodd;clip-rule:evenodd;fill:url(#SVGID_1_);stroke:url(#SVGID_00000145027046293183795850000002488122700016862628_);stroke-width:2;stroke-miterlimit:10;}
	.st1{fill:#C7203E;}
</style>
<linearGradient id="SVGID_1_" gradientUnits="userSpaceOnUse" x1="5.0697" y1="160.54" x2="253.5039" y2="160.6563">
	<stop  offset="0" style="stop-color:#FFE28B"/>
	<stop  offset="0.1543" style="stop-color:#FFF6AE"/>
	<stop  offset="0.2497" style="stop-color:#FFFFBF"/>
	<stop  offset="0.4897" style="stop-color:#FFFDBC"/>
	<stop  offset="0.6545" style="stop-color:#FFF7B3"/>
	<stop  offset="0.7967" style="stop-color:#FFECA4"/>
	<stop  offset="0.9253" style="stop-color:#FFDD8E"/>
	<stop  offset="1" style="stop-color:#FFD27E"/>
</linearGradient>
<linearGradient id="SVGID_00000069368415933834863510000017693915808093779586_" gradientUnits="userSpaceOnUse" x1="5.456968e-12" y1="160.5977" x2="256.4234" y2="160.5977">
	<stop  offset="0" style="stop-color:#AE762A"/>
	<stop  offset="0.09" style="stop-color:#DDB763"/>
	<stop  offset="0.1398" style="stop-color:#F4D67F"/>
	<stop  offset="0.2581" style="stop-color:#FBF9D8"/>
	<stop  offset="0.3602" style="stop-color:#F4D67F"/>
	<stop  offset="0.4892" style="stop-color:#AE762A"/>
	<stop  offset="0.5689" style="stop-color:#DDB763"/>
	<stop  offset="0.6129" style="stop-color:#F4D67F"/>
	<stop  offset="0.7366" style="stop-color:#FBF9D8"/>
	<stop  offset="0.8387" style="stop-color:#F4D67F"/>
	<stop  offset="1" style="stop-color:#AE762A"/>
</linearGradient>
<path style="fill-rule:evenodd;clip-rule:evenodd;fill:url(#SVGID_1_);stroke:url(#SVGID_00000069368415933834863510000017693915808093779586_);stroke-width:2;stroke-miterlimit:10;" d="
	M26.52,44.16h23.23c15.92-26.72,45.1-44.62,78.46-44.62c33.36,0,62.54,17.9,78.46,44.62h23.23c2.45,12.36,12.77,21.88,25.52,23.13
	V253.9c-12.75,1.25-23.07,10.77-25.52,23.13h-23.23c-15.92,26.72-45.1,44.62-78.46,44.62c-33.36,0-62.54-17.9-78.46-44.62H26.52
	C24.07,264.68,13.75,255.15,1,253.9V67.29C13.75,66.04,24.07,56.52,26.52,44.16L26.52,44.16z"/>
<g>
	<g>
		<g id="XMLID_00000055681674405885436830000010625936632643210408_">
			<g id="XMLID_00000028313665237335873720000004719868141034728860_">
				<path id="XMLID_00000063629495121905478920000011968446396500288933_" class="st1" d="M130.91,41.37
					c2.71,1.29,4.24-1.61,2.84-2.63c-0.03,0.26-1.15,1.57-2.74,0.21c-0.94-0.8-1.26-2.5-0.49-4.03c0.52-1.04,1.51-1.7,2.48-1.35
					c1.22,0.44,0.94,1.88,0.25,2.38c3.46,1.45,5.12-4.08,0.3-4.54c0.52-0.25,2.17-0.66,3.62-0.58c7.53,0.38,7.12,9.6,2.41,6.54
					c-1.15,0.39-1.04,4.31,2.33,4.23c2.63-0.07,3.84-2.93,3.23-5.81c0.87,0.95,2.07,1.69,3.79,1.62c3.74-0.14,3.41-5.2,0.11-4.54
					c1.13,0.22,1.07,2.17-0.86,2.5c-1.42,0.25-3.42-1.56-4.51-2.68c-1.89-1.77-4.2-2.98-7.08-2.9
					C127.44,30.03,127.44,39.72,130.91,41.37z"/>
				<path id="XMLID_00000013183150235331589400000009982662882357963915_" class="st1" d="M107.45,37.91
					c1.72,0.06,3.02-1.19,3.88-2.14c-0.62,2.89,0.59,5.74,3.23,5.81c3.37,0.09,3.85-3.38,2.33-4.23c-4.71,3.07-5.12-6.15,2.41-6.54
					c1.45-0.07,3.1,0.33,3.62,0.58c-4.82,0.45-3.17,5.98,0.3,4.54c-0.69-0.5-0.97-1.94,0.25-2.38c0.96-0.35,1.96,0.32,2.48,1.35
					c0.77,1.53,0.45,3.23-0.49,4.03c-1.59,1.36-2.71,0.05-2.74-0.21c-1.39,1.03,0.13,3.93,2.84,2.63
					c3.47-1.65,3.47-11.34-5.67-11.59c-2.88-0.08-5.19,1.14-7.08,2.9c-1.09,1.13-3.09,2.93-4.51,2.68c-1.93-0.34-1.99-2.28-0.86-2.5
					C104.13,32.2,103.71,37.78,107.45,37.91z"/>
			</g>
			<g id="XMLID_00000059279113571224216260000014789827173189448336_">
				<path id="XMLID_00000110454159446591781550000014695126333928832646_" class="st1" d="M129.23,27.09
					c0.13-0.82,1.11-1.62,2.09-0.75c1.88,1.68-2.39,5.4-2.88,5.99c1.8-0.73,6.79-5.46,3.9-7.84
					C130.26,22.79,127.37,24.91,129.23,27.09z"/>
				<path id="XMLID_00000023972621287302013040000017238210165723713462_" class="st1" d="M127.99,32.33
					c-0.49-0.6-4.76-4.31-2.88-5.99c0.97-0.87,1.95-0.07,2.09,0.75c1.86-2.18-1.03-4.3-3.1-2.6
					C121.2,26.87,126.19,31.6,127.99,32.33z"/>
			</g>
			<path id="XMLID_00000007398578049804644410000006526208383920216734_" class="st1" d="M128.21,24.79
				c0.43-0.88,1.14-2.12,2.67-1.98c-0.31-1.39-1.14-1.29-1.56-1.11c-0.01-0.58-0.22-1.76-1.11-2.05c-0.89,0.3-1.1,1.47-1.11,2.05
				c-0.42-0.18-1.25-0.28-1.56,1.11C127.07,22.67,127.78,23.91,128.21,24.79z"/>
			<polygon id="XMLID_00000003802855218935849490000015326342901750181261_" class="st1" points="130.97,43.16 129.19,44.48 
				128.21,46.91 127.24,44.48 125.46,43.16 127.24,41.84 128.21,39.41 129.19,41.84 			"/>
		</g>
		<g id="XMLID_00000174568168573120973380000011798666272461034143_">
			<g id="XMLID_00000157283797322041132590000003025227493003515297_">
				<path id="XMLID_00000003082759582672595920000012871980659921122232_" class="st1" d="M125.51,272.14
					c-2.71-1.29-4.24,1.61-2.84,2.63c0.03-0.26,1.15-1.57,2.74-0.21c0.94,0.8,1.26,2.5,0.49,4.03c-0.52,1.04-1.51,1.7-2.48,1.35
					c-1.22-0.44-0.94-1.88-0.25-2.38c-3.46-1.45-5.12,4.08-0.3,4.54c-0.52,0.25-2.17,0.66-3.62,0.58c-7.53-0.38-7.12-9.6-2.41-6.54
					c1.15-0.39,1.04-4.31-2.33-4.23c-2.63,0.07-3.84,2.93-3.23,5.81c-0.87-0.95-2.07-1.69-3.79-1.62c-3.74,0.14-3.41,5.2-0.11,4.54
					c-1.13-0.22-1.07-2.17,0.86-2.5c1.42-0.25,3.42,1.56,4.51,2.68c1.89,1.77,4.2,2.98,7.08,2.9
					C128.98,283.48,128.98,273.79,125.51,272.14z"/>
				<path id="XMLID_00000183927415947572717400000008096917996637200298_" class="st1" d="M148.97,275.59
					c-1.72-0.06-3.02,1.19-3.88,2.14c0.62-2.89-0.59-5.74-3.23-5.81c-3.37-0.09-3.85,3.38-2.33,4.23c4.71-3.07,5.12,6.15-2.41,6.54
					c-1.45,0.07-3.1-0.33-3.62-0.58c4.82-0.45,3.17-5.98-0.3-4.54c0.69,0.5,0.97,1.94-0.25,2.38c-0.96,0.35-1.96-0.32-2.48-1.35
					c-0.77-1.53-0.45-3.23,0.49-4.03c1.59-1.36,2.71-0.05,2.74,0.21c1.39-1.03-0.13-3.93-2.84-2.63
					c-3.47,1.65-3.47,11.34,5.67,11.59c2.88,0.08,5.19-1.14,7.08-2.9c1.09-1.13,3.09-2.93,4.51-2.68c1.93,0.34,1.99,2.28,0.86,2.5
					C152.29,281.31,152.71,275.73,148.97,275.59z"/>
			</g>
			<g id="XMLID_00000127004599230190174490000016497024526503920794_">
				<path id="XMLID_00000072269342052193834550000007547952106443871360_" class="st1" d="M127.19,286.42
					c-0.13,0.82-1.11,1.62-2.09,0.75c-1.88-1.68,2.39-5.4,2.88-5.99c-1.8,0.73-6.79,5.46-3.9,7.84
					C126.16,290.71,129.05,288.6,127.19,286.42z"/>
				<path id="XMLID_00000172433220241259937380000004316307353671354763_" class="st1" d="M128.43,281.18
					c0.49,0.6,4.76,4.31,2.88,5.99c-0.97,0.87-1.95,0.07-2.09-0.75c-1.86,2.18,1.03,4.3,3.1,2.6
					C135.22,286.64,130.24,281.91,128.43,281.18z"/>
			</g>
			<path id="XMLID_00000013884689829371795030000010432484405920394379_" class="st1" d="M128.21,288.72
				c-0.43,0.88-1.14,2.12-2.67,1.98c0.31,1.39,1.14,1.29,1.56,1.11c0.01,0.58,0.22,1.76,1.11,2.05c0.89-0.3,1.1-1.47,1.11-2.05
				c0.42,0.18,1.25,0.28,1.56-1.11C129.35,290.83,128.64,289.6,128.21,288.72z"/>
			<polygon id="XMLID_00000176752108175853534850000011642398073509958827_" class="st1" points="125.46,270.35 127.24,269.02 
				128.21,266.6 129.19,269.02 130.97,270.35 129.19,271.67 128.21,274.09 127.24,271.67 			"/>
		</g>
	</g>
</g>
</svg>
