<?xml version="1.0" encoding="utf-8"?>
<!-- Generator: Adobe Illustrator 27.3.1, SVG Export Plug-In . SVG Version: 6.00 Build 0)  -->
<svg version="1.1" id="Layer_1" xmlns="http://www.w3.org/2000/svg" xmlns:xlink="http://www.w3.org/1999/xlink" x="0px" y="0px"
	 viewBox="0 0 256.42 321.2" style="enable-background:new 0 0 256.42 321.2;" xml:space="preserve">
<style type="text/css">
	.st0{fill-rule:evenodd;clip-rule:evenodd;fill:#FFFFFF;stroke:url(#SVGID_1_);stroke-width:2;stroke-miterlimit:10;}
	.st1{fill:#C4A776;}
</style>
<linearGradient id="SVGID_1_" gradientUnits="userSpaceOnUse" x1="0" y1="160.5977" x2="256.4234" y2="160.5977">
	<stop  offset="0" style="stop-color:#AE762A"/>
	<stop  offset="0.09" style="stop-color:#DDB763"/>
	<stop  offset="0.1398" style="stop-color:#F4D67F"/>
	<stop  offset="0.2581" style="stop-color:#FBF9D8"/>
	<stop  offset="0.3602" style="stop-color:#F4D67F"/>
	<stop  offset="0.4892" style="stop-color:#AE762A"/>
	<stop  offset="0.5689" style="stop-color:#DDB763"/>
	<stop  offset="0.6129" style="stop-color:#F4D67F"/>
	<stop  offset="0.7366" style="stop-color:#FBF9D8"/>
	<stop  offset="0.8387" style="stop-color:#F4D67F"/>
	<stop  offset="1" style="stop-color:#AE762A"/>
</linearGradient>
<path class="st0" d="M26.52,45.62h23.23C65.67,18.9,94.85,1,128.21,1c33.36,0,62.54,17.9,78.46,44.62h23.23
	c2.45,12.36,12.77,21.88,25.52,23.13v183.69c-12.75,1.25-23.07,10.77-25.52,23.13h-23.23c-15.92,26.72-45.1,44.62-78.46,44.62
	c-33.36,0-62.54-17.9-78.46-44.62H26.52C24.07,263.22,13.75,253.69,1,252.44V68.75C13.75,67.5,24.07,57.98,26.52,45.62L26.52,45.62z
	"/>
<g>
	<g id="XMLID_00000098905364062537360340000002804294609585786807_">
		<g id="XMLID_00000062874332735691107850000003215346193663401860_">
			<path id="XMLID_00000098181188417655724310000015887209299629328033_" class="st1" d="M130.91,42.72
				c2.71,1.29,4.24-1.6,2.84-2.62c-0.03,0.26-1.15,1.56-2.74,0.21c-0.94-0.8-1.26-2.49-0.49-4.01c0.52-1.03,1.51-1.7,2.48-1.35
				c1.22,0.44,0.94,1.87,0.25,2.37c3.46,1.44,5.12-4.06,0.3-4.51c0.52-0.25,2.17-0.65,3.62-0.58c7.53,0.38,7.12,9.56,2.41,6.5
				c-1.15,0.39-1.04,4.29,2.33,4.21c2.63-0.07,3.84-2.91,3.23-5.78c0.87,0.95,2.07,1.68,3.79,1.62c3.74-0.14,3.41-5.17,0.11-4.52
				c1.13,0.22,1.07,2.16-0.86,2.49c-1.42,0.25-3.42-1.55-4.51-2.67c-1.89-1.76-4.2-2.97-7.08-2.89
				C127.44,31.44,127.44,41.08,130.91,42.72z"/>
			<path id="XMLID_00000114039389957594153140000017526959898740950159_" class="st1" d="M107.45,39.28
				c1.72,0.06,3.02-1.18,3.88-2.13c-0.62,2.87,0.59,5.72,3.23,5.78c3.37,0.09,3.85-3.36,2.33-4.21c-4.71,3.05-5.12-6.12,2.41-6.5
				c1.45-0.07,3.1,0.33,3.62,0.58c-4.82,0.45-3.17,5.96,0.3,4.51c-0.69-0.5-0.97-1.93,0.25-2.37c0.96-0.35,1.96,0.32,2.48,1.35
				c0.77,1.52,0.45,3.22-0.49,4.01c-1.59,1.35-2.71,0.05-2.74-0.21c-1.39,1.02,0.13,3.91,2.84,2.62c3.47-1.65,3.47-11.28-5.67-11.53
				c-2.88-0.08-5.19,1.13-7.08,2.89c-1.09,1.12-3.09,2.91-4.51,2.67c-1.93-0.34-1.99-2.27-0.86-2.49
				C104.13,33.6,103.71,39.15,107.45,39.28z"/>
		</g>
		<g id="XMLID_00000042734995726752857130000012184138641871002805_">
			<path id="XMLID_00000096768819253313963930000012920828408924403879_" class="st1" d="M129.23,28.51
				c0.13-0.82,1.11-1.62,2.09-0.75c1.88,1.67-2.39,5.37-2.88,5.96c1.8-0.73,6.79-5.43,3.9-7.8
				C130.26,24.24,127.37,26.35,129.23,28.51z"/>
			<path id="XMLID_00000145752921366912138580000015512979769820761505_" class="st1" d="M127.99,33.73
				c-0.49-0.59-4.76-4.29-2.88-5.96c0.97-0.87,1.95-0.07,2.09,0.75c1.86-2.17-1.03-4.28-3.1-2.58
				C121.2,28.29,126.19,33,127.99,33.73z"/>
		</g>
		<path id="XMLID_00000047018567214159751880000004506908216911287727_" class="st1" d="M128.21,26.22
			c0.43-0.88,1.14-2.11,2.67-1.97c-0.31-1.38-1.14-1.29-1.56-1.1c-0.01-0.57-0.22-1.75-1.11-2.04c-0.89,0.29-1.1,1.47-1.11,2.04
			c-0.42-0.18-1.25-0.28-1.56,1.1C127.07,24.12,127.78,25.35,128.21,26.22z"/>
		<polygon id="XMLID_00000083089325203153473750000016298728069901189553_" class="st1" points="130.97,44.5 129.19,45.82 
			128.21,48.23 127.24,45.82 125.46,44.5 127.24,43.19 128.21,40.78 129.19,43.19 		"/>
	</g>
	<g id="XMLID_00000057108998167396867980000005180413850166960820_">
		<g id="XMLID_00000084503576984902940520000010583711930552374434_">
			<path id="XMLID_00000016780144070693210180000009036101450198832024_" class="st1" d="M125.51,276.59
				c-2.71-1.29-4.24,1.6-2.84,2.62c0.03-0.26,1.15-1.56,2.74-0.21c0.94,0.8,1.26,2.49,0.49,4.01c-0.52,1.03-1.51,1.7-2.48,1.35
				c-1.22-0.44-0.94-1.87-0.25-2.37c-3.46-1.44-5.12,4.06-0.3,4.51c-0.52,0.25-2.17,0.65-3.62,0.58c-7.53-0.38-7.12-9.56-2.41-6.5
				c1.15-0.39,1.04-4.29-2.33-4.21c-2.63,0.07-3.84,2.91-3.23,5.78c-0.87-0.95-2.07-1.68-3.79-1.62c-3.74,0.14-3.41,5.17-0.11,4.52
				c-1.13-0.22-1.07-2.16,0.86-2.49c1.42-0.25,3.42,1.55,4.51,2.67c1.89,1.76,4.2,2.97,7.08,2.89
				C128.98,287.87,128.98,278.24,125.51,276.59z"/>
			<path id="XMLID_00000056394411726938240160000017603440857666710427_" class="st1" d="M148.97,280.03
				c-1.72-0.06-3.02,1.18-3.88,2.13c0.62-2.87-0.59-5.72-3.23-5.78c-3.37-0.09-3.85,3.36-2.33,4.21c4.71-3.05,5.12,6.12-2.41,6.5
				c-1.45,0.07-3.1-0.33-3.62-0.58c4.82-0.45,3.17-5.96-0.3-4.51c0.69,0.5,0.97,1.93-0.25,2.37c-0.96,0.35-1.96-0.32-2.48-1.35
				c-0.77-1.52-0.45-3.22,0.49-4.01c1.59-1.35,2.71-0.05,2.74,0.21c1.39-1.02-0.13-3.91-2.84-2.62c-3.47,1.65-3.47,11.28,5.67,11.53
				c2.88,0.08,5.19-1.13,7.08-2.89c1.09-1.12,3.09-2.91,4.51-2.67c1.93,0.34,1.99,2.27,0.86,2.49
				C152.29,285.72,152.71,280.17,148.97,280.03z"/>
		</g>
		<g id="XMLID_00000072249871820523681310000011974693308443647897_">
			<path id="XMLID_00000087398728922863075630000017030077279427262884_" class="st1" d="M127.19,290.8
				c-0.13,0.82-1.11,1.62-2.09,0.75c-1.88-1.67,2.39-5.37,2.88-5.96c-1.8,0.73-6.79,5.43-3.9,7.8
				C126.16,295.08,129.05,292.97,127.19,290.8z"/>
			<path id="XMLID_00000169558323026935614750000014803661762644276884_" class="st1" d="M128.43,285.59
				c0.49,0.59,4.76,4.29,2.88,5.96c-0.97,0.87-1.95,0.07-2.09-0.75c-1.86,2.17,1.03,4.28,3.1,2.58
				C135.22,291.02,130.24,286.31,128.43,285.59z"/>
		</g>
		<path id="XMLID_00000094612685089291290560000010330215355760242566_" class="st1" d="M128.21,293.09
			c-0.43,0.88-1.14,2.11-2.67,1.97c0.31,1.38,1.14,1.29,1.56,1.1c0.01,0.57,0.22,1.75,1.11,2.04c0.89-0.29,1.1-1.47,1.11-2.04
			c0.42,0.18,1.25,0.28,1.56-1.1C129.35,295.2,128.64,293.97,128.21,293.09z"/>
		<polygon id="XMLID_00000183938499630195661210000007371325376704356996_" class="st1" points="125.46,274.81 127.24,273.49 
			128.21,271.08 129.19,273.49 130.97,274.81 129.19,276.13 128.21,278.54 127.24,276.13 		"/>
	</g>
</g>
</svg>
