<?xml version="1.0" encoding="utf-8"?>
<!-- Generator: Adobe Illustrator 27.3.1, SVG Export Plug-In . SVG Version: 6.00 Build 0)  -->
<svg version="1.1" id="Layer_1" xmlns="http://www.w3.org/2000/svg" xmlns:xlink="http://www.w3.org/1999/xlink" x="0px" y="0px"
	 viewBox="0 0 256.42 321.2" style="enable-background:new 0 0 256.42 321.2;" xml:space="preserve">
<style type="text/css">
	
		.st0{fill-rule:evenodd;clip-rule:evenodd;fill:url(#SVGID_1_);stroke:url(#SVGID_00000131357243196449285380000017266158853935877802_);stroke-width:2;stroke-miterlimit:10;}
	.st1{fill:#C4A776;}
</style>
<linearGradient id="SVGID_1_" gradientUnits="userSpaceOnUse" x1="5.0701" y1="160.54" x2="253.5036" y2="160.6563">
	<stop  offset="0" style="stop-color:#F6BFBE"/>
	<stop  offset="0.0474" style="stop-color:#F8CFCE"/>
	<stop  offset="0.1251" style="stop-color:#FBE2E1"/>
	<stop  offset="0.2155" style="stop-color:#FDEFEF"/>
	<stop  offset="0.329" style="stop-color:#FFF7F7"/>
	<stop  offset="0.5399" style="stop-color:#FFF9F9"/>
	<stop  offset="0.6528" style="stop-color:#FEF4F4"/>
	<stop  offset="0.7808" style="stop-color:#FCE7E7"/>
	<stop  offset="0.9158" style="stop-color:#F9D1D0"/>
	<stop  offset="1" style="stop-color:#F6BFBE"/>
</linearGradient>
<linearGradient id="SVGID_00000170986407218058004700000015446654073196951942_" gradientUnits="userSpaceOnUse" x1="1.818989e-12" y1="160.5977" x2="256.4234" y2="160.5977">
	<stop  offset="0" style="stop-color:#AE762A"/>
	<stop  offset="0.09" style="stop-color:#DDB763"/>
	<stop  offset="0.1398" style="stop-color:#F4D67F"/>
	<stop  offset="0.2581" style="stop-color:#FBF9D8"/>
	<stop  offset="0.3602" style="stop-color:#F4D67F"/>
	<stop  offset="0.4892" style="stop-color:#AE762A"/>
	<stop  offset="0.5689" style="stop-color:#DDB763"/>
	<stop  offset="0.6129" style="stop-color:#F4D67F"/>
	<stop  offset="0.7366" style="stop-color:#FBF9D8"/>
	<stop  offset="0.8387" style="stop-color:#F4D67F"/>
	<stop  offset="1" style="stop-color:#AE762A"/>
</linearGradient>
<path style="fill-rule:evenodd;clip-rule:evenodd;fill:url(#SVGID_1_);stroke:url(#SVGID_00000170986407218058004700000015446654073196951942_);stroke-width:2;stroke-miterlimit:10;" d="
	M26.52,44.98h23.23c15.92-26.72,45.1-44.62,78.46-44.62c33.36,0,62.54,17.9,78.46,44.62h23.23c2.45,12.36,12.77,21.88,25.52,23.13
	v184.97c-12.75,1.25-23.07,10.77-25.52,23.13h-23.23c-15.92,26.72-45.1,44.62-78.46,44.62c-33.36,0-62.54-17.9-78.46-44.62H26.52
	C24.07,263.86,13.75,254.33,1,253.08V68.11C13.75,66.87,24.07,57.34,26.52,44.98L26.52,44.98z"/>
<g>
	<g id="XMLID_00000134962897099251104000000004869782735068243121_">
		<g id="XMLID_00000136401672438556385860000008192926331905794219_">
			<path id="XMLID_00000035518308909667246110000005675435300699561635_" class="st1" d="M130.91,42.19
				c2.71,1.29,4.24-1.61,2.84-2.63c-0.03,0.26-1.15,1.57-2.74,0.21c-0.94-0.8-1.26-2.5-0.49-4.03c0.52-1.04,1.51-1.7,2.48-1.35
				c1.22,0.44,0.94,1.88,0.25,2.38c3.46,1.45,5.12-4.08,0.3-4.54c0.52-0.25,2.17-0.66,3.62-0.58c7.53,0.38,7.12,9.6,2.41,6.54
				c-1.15,0.39-1.04,4.31,2.33,4.23c2.63-0.07,3.84-2.93,3.23-5.81c0.87,0.95,2.07,1.69,3.79,1.62c3.74-0.14,3.41-5.2,0.11-4.54
				c1.13,0.22,1.07,2.17-0.86,2.5c-1.42,0.25-3.42-1.56-4.51-2.68c-1.89-1.77-4.2-2.98-7.08-2.9
				C127.44,30.85,127.44,40.54,130.91,42.19z"/>
			<path id="XMLID_00000134251978789555508400000002847802106908827582_" class="st1" d="M107.45,38.74
				c1.72,0.06,3.02-1.19,3.88-2.14c-0.62,2.89,0.59,5.74,3.23,5.81c3.37,0.09,3.85-3.38,2.33-4.23c-4.71,3.07-5.12-6.15,2.41-6.54
				c1.45-0.07,3.1,0.33,3.62,0.58c-4.82,0.45-3.17,5.98,0.3,4.54c-0.69-0.5-0.97-1.94,0.25-2.38c0.96-0.35,1.96,0.32,2.48,1.35
				c0.77,1.53,0.45,3.23-0.49,4.03c-1.59,1.36-2.71,0.05-2.74-0.21c-1.39,1.03,0.13,3.93,2.84,2.63c3.47-1.65,3.47-11.34-5.67-11.59
				c-2.88-0.08-5.19,1.14-7.08,2.9c-1.09,1.13-3.09,2.93-4.51,2.68c-1.93-0.34-1.99-2.28-0.86-2.5
				C104.13,33.02,103.71,38.6,107.45,38.74z"/>
		</g>
		<g id="XMLID_00000006689961098608778850000007050690404144640144_">
			<path id="XMLID_00000005980737806548018090000000305120131553453241_" class="st1" d="M129.23,27.91
				c0.13-0.82,1.11-1.62,2.09-0.75c1.88,1.68-2.39,5.4-2.88,5.99c1.8-0.73,6.79-5.46,3.9-7.84
				C130.26,23.61,127.37,25.73,129.23,27.91z"/>
			<path id="XMLID_00000038381811384938567560000007431387129252088751_" class="st1" d="M127.99,33.15
				c-0.49-0.6-4.76-4.31-2.88-5.99c0.97-0.87,1.95-0.07,2.09,0.75c1.86-2.18-1.03-4.3-3.1-2.6
				C121.2,27.69,126.19,32.42,127.99,33.15z"/>
		</g>
		<path id="XMLID_00000017499261153727134030000017333249244351658399_" class="st1" d="M128.21,25.61
			c0.43-0.88,1.14-2.12,2.67-1.98c-0.31-1.39-1.14-1.29-1.56-1.11c-0.01-0.58-0.22-1.76-1.11-2.05c-0.89,0.3-1.1,1.47-1.11,2.05
			c-0.42-0.18-1.25-0.28-1.56,1.11C127.07,23.49,127.78,24.73,128.21,25.61z"/>
		<polygon id="XMLID_00000034787982691939916580000001441620119573232054_" class="st1" points="130.97,43.98 129.19,45.3 
			128.21,47.73 127.24,45.3 125.46,43.98 127.24,42.66 128.21,40.24 129.19,42.66 		"/>
	</g>
	<g id="XMLID_00000062883468847672400820000012117883090596132762_">
		<g id="XMLID_00000132046800874472779910000009526664259507755173_">
			<path id="XMLID_00000026862850517490351160000001270676550124337327_" class="st1" d="M125.51,279
				c-2.71-1.29-4.24,1.61-2.84,2.63c0.03-0.26,1.15-1.57,2.74-0.21c0.94,0.8,1.26,2.5,0.49,4.03c-0.52,1.04-1.51,1.7-2.48,1.35
				c-1.22-0.44-0.94-1.88-0.25-2.38c-3.46-1.45-5.12,4.08-0.3,4.54c-0.52,0.25-2.17,0.66-3.62,0.58c-7.53-0.38-7.12-9.6-2.41-6.54
				c1.15-0.39,1.04-4.31-2.33-4.23c-2.63,0.07-3.84,2.93-3.23,5.81c-0.87-0.95-2.07-1.69-3.79-1.62c-3.74,0.14-3.41,5.2-0.11,4.54
				c-1.13-0.22-1.07-2.17,0.86-2.5c1.42-0.25,3.42,1.56,4.51,2.68c1.89,1.77,4.2,2.98,7.08,2.9
				C128.98,290.34,128.98,280.66,125.51,279z"/>
			<path id="XMLID_00000129178861505173911300000012633616157213118910_" class="st1" d="M148.97,282.46
				c-1.72-0.06-3.02,1.19-3.88,2.14c0.62-2.89-0.59-5.74-3.23-5.81c-3.37-0.09-3.85,3.38-2.33,4.23c4.71-3.07,5.12,6.15-2.41,6.54
				c-1.45,0.07-3.1-0.33-3.62-0.58c4.82-0.45,3.17-5.98-0.3-4.54c0.69,0.5,0.97,1.94-0.25,2.38c-0.96,0.35-1.96-0.32-2.48-1.35
				c-0.77-1.53-0.45-3.23,0.49-4.03c1.59-1.36,2.71-0.05,2.74,0.21c1.39-1.03-0.13-3.93-2.84-2.63c-3.47,1.65-3.47,11.34,5.67,11.59
				c2.88,0.08,5.19-1.14,7.08-2.9c1.09-1.13,3.09-2.93,4.51-2.68c1.93,0.34,1.99,2.28,0.86,2.5
				C152.29,288.17,152.71,282.6,148.97,282.46z"/>
		</g>
		<g id="XMLID_00000109713571777698806060000011000038486867538346_">
			<path id="XMLID_00000144334427682273938800000008962634854680527008_" class="st1" d="M127.19,293.28
				c-0.13,0.82-1.11,1.62-2.09,0.75c-1.88-1.68,2.39-5.4,2.88-5.99c-1.8,0.73-6.79,5.46-3.9,7.84
				C126.16,297.58,129.05,295.46,127.19,293.28z"/>
			<path id="XMLID_00000052100159675617346280000017925018436216264124_" class="st1" d="M128.43,288.04
				c0.49,0.6,4.76,4.31,2.88,5.99c-0.97,0.87-1.95,0.07-2.09-0.75c-1.86,2.18,1.03,4.3,3.1,2.6
				C135.22,293.5,130.24,288.77,128.43,288.04z"/>
		</g>
		<path id="XMLID_00000115506815294479411620000002550946282200804264_" class="st1" d="M128.21,295.58
			c-0.43,0.88-1.14,2.12-2.67,1.98c0.31,1.39,1.14,1.29,1.56,1.11c0.01,0.58,0.22,1.76,1.11,2.05c0.89-0.3,1.1-1.47,1.11-2.05
			c0.42,0.18,1.25,0.28,1.56-1.11C129.35,297.7,128.64,296.46,128.21,295.58z"/>
		<polygon id="XMLID_00000047023745624765540630000014960711925254103941_" class="st1" points="125.46,277.21 127.24,275.89 
			128.21,273.47 129.19,275.89 130.97,277.21 129.19,278.54 128.21,280.96 127.24,278.54 		"/>
	</g>
</g>
</svg>
