<?xml version="1.0" encoding="utf-8"?>
<!-- Generator: Adobe Illustrator 27.3.1, SVG Export Plug-In . SVG Version: 6.00 Build 0)  -->
<svg version="1.1" id="Layer_1" xmlns="http://www.w3.org/2000/svg" xmlns:xlink="http://www.w3.org/1999/xlink" x="0px" y="0px"
	 viewBox="0 0 1920 800" style="enable-background:new 0 0 1920 800;" xml:space="preserve">
<style type="text/css">
	.st0{fill:none;}
	.st1{fill:#C49A6C;}
	.st2{fill:url(#SVGID_1_);}
	.st3{opacity:0.1;fill:url(#SVGID_00000085958814880047335670000018124077698997853847_);}
	.st4{fill:#C7203E;}
	.st5{fill:#C4A776;}
	.st6{fill:#FFE7B0;}
	.st7{opacity:0.1;fill:url(#SVGID_00000165210912536030786980000006023341087259933849_);}
	
		.st8{fill-rule:evenodd;clip-rule:evenodd;fill:#FFFFFF;stroke:url(#SVGID_00000067928546559972838980000007304181488269766802_);stroke-width:2;stroke-miterlimit:10;}
	.st9{fill:#B59557;}
	
		.st10{fill-rule:evenodd;clip-rule:evenodd;fill:url(#SVGID_00000043452758659837280310000007655899401849420974_);stroke:url(#SVGID_00000065775456949841379180000014375207571394452886_);stroke-width:2;stroke-miterlimit:10;}
	.st11{fill:#590230;}
	
		.st12{fill-rule:evenodd;clip-rule:evenodd;fill:url(#SVGID_00000144319042858070845250000010336286017894193336_);stroke:url(#SVGID_00000018918090965520782070000003685754827254080918_);stroke-width:2;stroke-miterlimit:10;}
	.st13{fill:#471600;}
	
		.st14{fill-rule:evenodd;clip-rule:evenodd;fill:url(#SVGID_00000075150929417785646830000011913119800923718022_);stroke:url(#SVGID_00000101061962442504157880000011385582479575040668_);stroke-width:2;stroke-miterlimit:10;}
	.st15{fill:#FFEEA7;}
	.st16{fill:#FFE9E9;}
</style>
<pattern  x="1135.63" y="17.08" width="60" height="60" patternUnits="userSpaceOnUse" id="New_Pattern_Swatch_2" viewBox="0 -60 60 60" style="overflow:visible;">
	<g>
		<rect y="-60" class="st0" width="60" height="60"/>
		<path class="st1" d="M30-30.41c1.03-1,2.9-3.86,3.55-5.62c-0.45-0.15-0.94-0.2-1.49-0.12c-0.23-1.42-1.31-3.16-2.06-3.89
			c-0.75,0.73-1.83,2.46-2.06,3.89c-0.55-0.08-1.04-0.04-1.5,0.12C27.09-34.28,28.96-31.43,30-30.41z"/>
		<path class="st1" d="M36.15-32.06c0.08-0.55,0.04-1.04-0.12-1.49c-1.75,0.65-4.61,2.52-5.62,3.55c0.97,1,3.81,2.9,5.62,3.55
			c0.16-0.45,0.2-0.95,0.12-1.5c1.41-0.22,3.15-1.3,3.89-2.06C39.33-30.74,37.58-31.83,36.15-32.06z"/>
		<path class="st1" d="M30-29.58c-1.02,1-2.91,3.87-3.55,5.62c0.44,0.15,0.93,0.2,1.49,0.11c0.23,1.44,1.31,3.16,2.06,3.89
			c0.75-0.73,1.83-2.46,2.06-3.89c0.55,0.08,1.04,0.04,1.49-0.12C32.91-25.71,31.03-28.58,30-29.58z"/>
		<path class="st1" d="M23.85-27.94c-0.03,0.22-0.12,0.8,0.11,1.49c1.74-0.65,4.62-2.53,5.62-3.55c-1-1.02-3.87-2.9-5.62-3.55
			c-0.16,0.45-0.2,0.94-0.12,1.49c-1.56,0.25-3.74,1.74-3.89,2.06C20.69-29.25,22.42-28.17,23.85-27.94z"/>
	</g>
</pattern>
<rect y="0" class="st6" width="1920" height="800"/>
<pattern  id="SVGID_1_" xlink:href="#New_Pattern_Swatch_2" patternTransform="matrix(1 0 0 1 41.1727 -67.6417)">
</pattern>
<rect style="opacity:0.1;fill:url(#SVGID_1_);" width="1920" height="800"/>
</svg>
