<?xml version="1.0" encoding="utf-8"?>
<!-- Generator: Adobe Illustrator 27.3.1, SVG Export Plug-In . SVG Version: 6.00 Build 0)  -->
<svg version="1.1" id="Layer_1" xmlns="http://www.w3.org/2000/svg" xmlns:xlink="http://www.w3.org/1999/xlink" x="0px" y="0px"
	 viewBox="0 0 403.57 90.1" style="enable-background:new 0 0 403.57 90.1;" xml:space="preserve">
<style type="text/css">
	.st0{fill-rule:evenodd;clip-rule:evenodd;fill:#BAA056;}
</style>
<g>
	<path class="st0" d="M233.42,46.11c-1.14-0.86-3.12-1.74-4.99-1.74c-0.47,0-0.92,0.06-1.33,0.17c-0.54,0.15-1.53,0.54-2.08,1.51
		c-0.37,0.68-0.47,1.46-0.26,2.18c0.21,0.75,0.69,1.37,1.36,1.74c0.42,0.24,0.9,0.37,1.39,0.37c1.04,0,2-0.56,2.52-1.47
		c0.07-0.13,0.12-0.26,0.17-0.38c0.36,0.15,0.73,0.36,1.02,0.57c1.3,0.97,2.15,2.4,2.38,4.03c0.23,1.63-0.18,3.24-1.16,4.55
		c-1.42,1.89-3.59,3.07-5.96,3.23c-0.13,0.01-0.27,0.01-0.41,0.01c-8.7,0-19.31-15.7-22.52-26.1c-0.25-0.76-0.96-1.27-1.76-1.27
		c-0.81,0-1.5,0.5-1.78,1.28c-3.19,10.39-13.78,26.11-22.47,26.11c-0.07,0-0.14,0-0.2-0.01c-0.08-0.01-0.16-0.01-0.23-0.01h-0.01
		c-2.37-0.16-4.54-1.34-5.96-3.23c-0.99-1.3-1.4-2.91-1.17-4.54c0.23-1.63,1.08-3.06,2.41-4.04c0.22-0.18,0.58-0.38,1-0.56
		c0.05,0.12,0.11,0.24,0.18,0.39c0.5,0.89,1.46,1.45,2.5,1.45c0.48,0,0.96-0.12,1.39-0.35c0.67-0.37,1.16-0.99,1.38-1.76
		c0.19-0.71,0.09-1.49-0.28-2.17c-0.54-0.96-1.53-1.36-2.08-1.51c-0.41-0.11-0.86-0.17-1.33-0.17c-1.86,0-3.84,0.87-4.99,1.74
		c-4.33,3.25-5.21,9.41-1.97,13.74c2.05,2.77,5.22,4.48,8.68,4.71c0.24,0.01,0.48,0.02,0.71,0.02c9.04,0,19.11-12.22,24.21-23.98
		c5.23,12.02,15.69,24.52,24.92,23.96c3.46-0.23,6.62-1.95,8.67-4.71c1.58-2.08,2.24-4.66,1.86-7.27
		C236.88,49.98,235.53,47.69,233.42,46.11L233.42,46.11z"/>
	<path class="st0" d="M211.65,67.2c-2.95-2.49-5.76-5.6-8.36-9.24c-0.36-0.49-0.92-0.76-1.5-0.76c-0.6,0-1.17,0.29-1.51,0.76
		c-2.64,3.69-5.45,6.79-8.35,9.24c-0.64,0.54-0.84,1.42-0.5,2.17l8.68,19.73c0.27,0.61,0.91,1,1.68,1c0.76,0,1.41-0.37,1.68-1
		l8.68-19.73C212.47,68.62,212.26,67.73,211.65,67.2z M201.79,83.77l-6.43-14.63c2.31-2.12,4.47-4.46,6.43-6.98
		c1.99,2.57,4.16,4.91,6.43,6.98L201.79,83.77z"/>
	<path class="st0" d="M207.24,22.81c0,3.02-2.45,5.48-5.46,5.48c-3.01,0-5.45-2.46-5.45-5.48c0-3.01,2.45-5.45,5.45-5.45
		C204.79,17.36,207.24,19.81,207.24,22.81L207.24,22.81L207.24,22.81z"/>
	<path class="st0" d="M200.03,22.81L200.03,22.81c0-0.97,0.79-1.76,1.76-1.76c0.97,0,1.76,0.79,1.76,1.76
		c0,0.99-0.79,1.79-1.76,1.79C200.81,24.61,200.03,23.8,200.03,22.81L200.03,22.81z"/>
	<path class="st0" d="M188.66,24.18c0.23,1-0.37,1.99-1.36,2.26c-16.48,3.95-30.93,14.47-40.7,29.64c-0.46,0.72-1.4,1.04-2.19,0.74
		c-0.81-0.3-1.3-1.11-1.2-1.97c1.77-14.13,5.59-23.29,12.72-30.41h-17.37c-3.1,0.08-4.79,0.85-5.8,2.65
		c-0.67,1.16-0.8,2.56-0.36,3.84c0.3,0.85,0.91,1.53,1.7,1.9c0.58,0.27,1.19,0.37,1.82,0.3c-0.08-0.24-0.14-0.53-0.14-0.85
		c0-1.58,1.3-2.87,2.89-2.87c1.58,0,2.87,1.29,2.87,2.87c0,1.19-0.84,2.16-1.15,2.53c-0.99,1.02-2.17,1.51-2.5,1.63
		c-1.8,0.63-3.71,0.52-5.36-0.29c-1.69-0.8-2.98-2.22-3.61-3.99c-0.8-2.3-0.57-4.81,0.63-6.91c2.2-3.83,5.95-4.41,8.96-4.49h22.3
		c0.81,0,1.51,0.5,1.75,1.25c0.26,0.74,0.01,1.58-0.61,2.05c-7.21,5.67-11.36,12.76-13.72,23.52c9.94-12.4,23.46-21.15,38.21-24.72
		c0.39-0.12,0.96-0.06,1.39,0.21C188.2,23.27,188.52,23.69,188.66,24.18L188.66,24.18L188.66,24.18z"/>
	<path class="st0" d="M336.31,9.75c3.68,0,6.38,1.77,6.87,4.52c0.13,0.77,0.17,2.51-0.69,3.57c-0.49,0.6-1.17,0.97-1.92,1.03
		c-0.1,0.02-0.24,0.03-0.38,0.03c-0.6,0-1.21-0.22-1.72-0.62c-1.23-0.99-1.43-2.8-0.45-4.04c0.12-0.15,0.25-0.29,0.39-0.4
		c-0.59-0.25-1.34-0.39-2.1-0.39H67.25c-0.76,0-1.52,0.14-2.1,0.39c0.15,0.13,0.29,0.28,0.41,0.44c0.46,0.58,0.67,1.32,0.59,2.08
		c-0.08,0.76-0.46,1.44-1.06,1.92c-0.58,0.49-1.37,0.72-2.13,0.59c-0.72-0.06-1.42-0.43-1.89-1.03c-0.86-1.05-0.82-2.8-0.67-3.57
		c0.47-2.74,3.16-4.52,6.86-4.52H336.31L336.31,9.75L336.31,9.75z"/>
	<path class="st0" d="M265.05,20.75c3.03,0.08,6.78,0.67,8.98,4.49c1.2,2.1,1.43,4.61,0.62,6.91c-0.62,1.76-1.9,3.18-3.59,3.99
		c-1.68,0.81-3.6,0.9-5.37,0.27c-0.67-0.23-1.67-0.77-2.48-1.6c-0.79-0.88-1.16-1.71-1.16-2.54c0-1.58,1.29-2.87,2.87-2.87
		c1.58,0,2.87,1.29,2.87,2.87c0,0.29-0.04,0.58-0.13,0.85c0.63,0.08,1.25-0.03,1.81-0.29c0.8-0.37,1.41-1.05,1.71-1.9
		c0.45-1.28,0.33-2.68-0.35-3.83c-1.01-1.78-2.76-2.57-5.84-2.65h-17.34c7.12,7.11,10.93,16.26,12.7,30.41
		c0.1,0.87-0.39,1.68-1.19,1.97c-0.78,0.3-1.73-0.02-2.19-0.74c-9.77-15.16-24.22-25.69-40.68-29.64c-0.99-0.27-1.6-1.27-1.36-2.25
		c0.1-0.48,0.43-0.91,0.86-1.15c0.39-0.25,0.93-0.34,1.4-0.2c14.72,3.56,28.23,12.31,38.19,24.71
		c-2.34-10.63-6.61-17.92-13.74-23.52c-0.61-0.47-0.86-1.31-0.6-2.05c0.25-0.74,0.95-1.24,1.74-1.24H265.05L265.05,20.75
		L265.05,20.75z"/>
	<path class="st0" d="M395.62,0c2.21,0.08,5.32,0.55,7.07,3.61c0.97,1.66,1.15,3.67,0.49,5.51c-0.5,1.42-1.54,2.57-2.91,3.21
		c-1.34,0.66-2.9,0.74-4.34,0.24c-0.85-0.31-1.7-0.93-2.27-1.65c-0.84-1.05-1.04-2.32-0.5-3.4c0.48-0.97,1.5-1.6,2.59-1.6
		c0.43,0,0.85,0.1,1.25,0.29c1.08,0.53,1.7,1.69,1.59,2.85c0.52-0.21,0.94-0.63,1.12-1.18c0.29-0.79,0.21-1.71-0.22-2.45
		c-0.68-1.17-1.79-1.65-3.94-1.74H7.99C5.9,3.77,4.76,4.28,4.09,5.43C3.66,6.19,3.57,7.1,3.86,7.87C4.06,8.44,4.47,8.86,5,9.06
		C4.89,7.91,5.5,6.74,6.57,6.21c1.41-0.67,3.17-0.05,3.83,1.31c0.54,1.06,0.35,2.33-0.51,3.41c-0.54,0.71-1.41,1.34-2.27,1.65
		C6.2,13.08,4.64,13,3.3,12.34C1.94,11.7,0.9,10.56,0.38,9.13C-0.27,7.27-0.08,5.24,0.9,3.58C2.61,0.55,5.73,0.09,7.92,0H395.62
		L395.62,0z"/>
</g>
</svg>
