<?xml version="1.0" encoding="utf-8"?>
<!-- Generator: Adobe Illustrator 27.3.1, SVG Export Plug-In . SVG Version: 6.00 Build 0)  -->
<svg version="1.1" id="Layer_1" xmlns="http://www.w3.org/2000/svg" xmlns:xlink="http://www.w3.org/1999/xlink" x="0px" y="0px"
	 viewBox="0 0 403.6 90.1" style="enable-background:new 0 0 403.6 90.1;" xml:space="preserve">
<style type="text/css">
	.st0{fill-rule:evenodd;clip-rule:evenodd;fill:#BA7F08;}
</style>
<g>
	<path class="st0" d="M233.4,46.1c-1.1-0.9-3.1-1.7-5-1.7c-0.5,0-0.9,0.1-1.3,0.2c-0.5,0.2-1.5,0.5-2.1,1.5
		c-0.4,0.7-0.5,1.5-0.3,2.2c0.2,0.8,0.7,1.4,1.4,1.7c0.4,0.2,0.9,0.4,1.4,0.4c1,0,2-0.6,2.5-1.5c0.1-0.1,0.1-0.3,0.2-0.4
		c0.4,0.2,0.7,0.4,1,0.6c1.3,1,2.1,2.4,2.4,4c0.2,1.6-0.2,3.2-1.2,4.5c-1.4,1.9-3.6,3.1-6,3.2c-0.1,0-0.3,0-0.4,0
		c-8.7,0-19.3-15.7-22.5-26.1c-0.2-0.8-1-1.3-1.8-1.3c-0.8,0-1.5,0.5-1.8,1.3c-3.2,10.4-13.8,26.1-22.5,26.1c-0.1,0-0.1,0-0.2,0
		c-0.1,0-0.2,0-0.2,0h0c-2.4-0.2-4.5-1.3-6-3.2c-1-1.3-1.4-2.9-1.2-4.5s1.1-3.1,2.4-4c0.2-0.2,0.6-0.4,1-0.6
		c0.1,0.1,0.1,0.2,0.2,0.4c0.5,0.9,1.5,1.5,2.5,1.5c0.5,0,1-0.1,1.4-0.3c0.7-0.4,1.2-1,1.4-1.8c0.2-0.7,0.1-1.5-0.3-2.2
		c-0.5-1-1.5-1.4-2.1-1.5c-0.4-0.1-0.9-0.2-1.3-0.2c-1.9,0-3.8,0.9-5,1.7c-4.3,3.2-5.2,9.4-2,13.7c2.1,2.8,5.2,4.5,8.7,4.7
		c0.2,0,0.5,0,0.7,0c9,0,19.1-12.2,24.2-24c5.2,12,15.7,24.5,24.9,24c3.5-0.2,6.6-2,8.7-4.7c1.6-2.1,2.2-4.7,1.9-7.3
		C236.9,50,235.5,47.7,233.4,46.1L233.4,46.1z"/>
	<path class="st0" d="M211.6,67.2c-2.9-2.5-5.8-5.6-8.4-9.2c-0.4-0.5-0.9-0.8-1.5-0.8c-0.6,0-1.2,0.3-1.5,0.8
		c-2.6,3.7-5.4,6.8-8.4,9.2c-0.6,0.5-0.8,1.4-0.5,2.2l8.7,19.7c0.3,0.6,0.9,1,1.7,1c0.8,0,1.4-0.4,1.7-1l8.7-19.7
		C212.5,68.6,212.3,67.7,211.6,67.2z M201.8,83.8l-6.4-14.6c2.3-2.1,4.5-4.5,6.4-7c2,2.6,4.2,4.9,6.4,7L201.8,83.8z"/>
	<path class="st0" d="M207.2,22.8c0,3-2.4,5.5-5.5,5.5c-3,0-5.4-2.5-5.4-5.5c0-3,2.4-5.4,5.4-5.4C204.8,17.4,207.2,19.8,207.2,22.8
		L207.2,22.8L207.2,22.8z"/>
	<path class="st0" d="M200,22.8L200,22.8c0-1,0.8-1.8,1.8-1.8s1.8,0.8,1.8,1.8c0,1-0.8,1.8-1.8,1.8C200.8,24.6,200,23.8,200,22.8
		L200,22.8z"/>
	<path class="st0" d="M188.7,24.2c0.2,1-0.4,2-1.4,2.3c-16.5,4-30.9,14.5-40.7,29.6c-0.5,0.7-1.4,1-2.2,0.7c-0.8-0.3-1.3-1.1-1.2-2
		c1.8-14.1,5.6-23.3,12.7-30.4h-17.4c-3.1,0.1-4.8,0.9-5.8,2.6c-0.7,1.2-0.8,2.6-0.4,3.8c0.3,0.9,0.9,1.5,1.7,1.9
		c0.6,0.3,1.2,0.4,1.8,0.3c-0.1-0.2-0.1-0.5-0.1-0.8c0-1.6,1.3-2.9,2.9-2.9c1.6,0,2.9,1.3,2.9,2.9c0,1.2-0.8,2.2-1.1,2.5
		c-1,1-2.2,1.5-2.5,1.6c-1.8,0.6-3.7,0.5-5.4-0.3c-1.7-0.8-3-2.2-3.6-4c-0.8-2.3-0.6-4.8,0.6-6.9c2.2-3.8,5.9-4.4,9-4.5h22.3
		c0.8,0,1.5,0.5,1.8,1.2c0.3,0.7,0,1.6-0.6,2c-7.2,5.7-11.4,12.8-13.7,23.5c9.9-12.4,23.5-21.1,38.2-24.7c0.4-0.1,1-0.1,1.4,0.2
		C188.2,23.3,188.5,23.7,188.7,24.2L188.7,24.2L188.7,24.2z"/>
	<path class="st0" d="M336.3,9.8c3.7,0,6.4,1.8,6.9,4.5c0.1,0.8,0.2,2.5-0.7,3.6c-0.5,0.6-1.2,1-1.9,1c-0.1,0-0.2,0-0.4,0
		c-0.6,0-1.2-0.2-1.7-0.6c-1.2-1-1.4-2.8-0.5-4c0.1-0.1,0.2-0.3,0.4-0.4c-0.6-0.2-1.3-0.4-2.1-0.4H67.2c-0.8,0-1.5,0.1-2.1,0.4
		c0.2,0.1,0.3,0.3,0.4,0.4c0.5,0.6,0.7,1.3,0.6,2.1s-0.5,1.4-1.1,1.9c-0.6,0.5-1.4,0.7-2.1,0.6c-0.7-0.1-1.4-0.4-1.9-1
		c-0.9-1-0.8-2.8-0.7-3.6c0.5-2.7,3.2-4.5,6.9-4.5H336.3L336.3,9.8L336.3,9.8z"/>
	<path class="st0" d="M265,20.8c3,0.1,6.8,0.7,9,4.5c1.2,2.1,1.4,4.6,0.6,6.9c-0.6,1.8-1.9,3.2-3.6,4c-1.7,0.8-3.6,0.9-5.4,0.3
		c-0.7-0.2-1.7-0.8-2.5-1.6c-0.8-0.9-1.2-1.7-1.2-2.5c0-1.6,1.3-2.9,2.9-2.9s2.9,1.3,2.9,2.9c0,0.3,0,0.6-0.1,0.8
		c0.6,0.1,1.2,0,1.8-0.3c0.8-0.4,1.4-1,1.7-1.9c0.5-1.3,0.3-2.7-0.4-3.8c-1-1.8-2.8-2.6-5.8-2.6h-17.3c7.1,7.1,10.9,16.3,12.7,30.4
		c0.1,0.9-0.4,1.7-1.2,2c-0.8,0.3-1.7,0-2.2-0.7c-9.8-15.2-24.2-25.7-40.7-29.6c-1-0.3-1.6-1.3-1.4-2.2c0.1-0.5,0.4-0.9,0.9-1.1
		c0.4-0.2,0.9-0.3,1.4-0.2c14.7,3.6,28.2,12.3,38.2,24.7c-2.3-10.6-6.6-17.9-13.7-23.5c-0.6-0.5-0.9-1.3-0.6-2
		c0.2-0.7,0.9-1.2,1.7-1.2L265,20.8L265,20.8L265,20.8z"/>
	<path class="st0" d="M395.6,0c2.2,0.1,5.3,0.6,7.1,3.6c1,1.7,1.1,3.7,0.5,5.5c-0.5,1.4-1.5,2.6-2.9,3.2c-1.3,0.7-2.9,0.7-4.3,0.2
		c-0.9-0.3-1.7-0.9-2.3-1.6c-0.8-1.1-1-2.3-0.5-3.4c0.5-1,1.5-1.6,2.6-1.6c0.4,0,0.9,0.1,1.2,0.3c1.1,0.5,1.7,1.7,1.6,2.8
		c0.5-0.2,0.9-0.6,1.1-1.2c0.3-0.8,0.2-1.7-0.2-2.5c-0.7-1.2-1.8-1.7-3.9-1.7H8C5.9,3.8,4.8,4.3,4.1,5.4C3.7,6.2,3.6,7.1,3.9,7.9
		c0.2,0.6,0.6,1,1.1,1.2C4.9,7.9,5.5,6.7,6.6,6.2C8,5.5,9.7,6.2,10.4,7.5c0.5,1.1,0.4,2.3-0.5,3.4c-0.5,0.7-1.4,1.3-2.3,1.6
		c-1.4,0.5-3,0.4-4.3-0.2c-1.4-0.6-2.4-1.8-2.9-3.2c-0.6-1.9-0.5-3.9,0.5-5.6c1.7-3,4.8-3.5,7-3.6H395.6L395.6,0z"/>
</g>
</svg>
