<?xml version="1.0" encoding="utf-8"?>
<!-- Generator: Adobe Illustrator 27.3.1, SVG Export Plug-In . SVG Version: 6.00 Build 0)  -->
<svg version="1.1" id="Layer_1" xmlns="http://www.w3.org/2000/svg" xmlns:xlink="http://www.w3.org/1999/xlink" x="0px" y="0px"
	 viewBox="0 0 128.3 287.7" style="enable-background:new 0 0 128.3 287.7;" xml:space="preserve">
<style type="text/css">
	.st0{fill:#BA7F08;}
</style>
<path class="st0" d="M114.8,273.8c4.9,4.9,6.8,13.9,6.8,13.9s1.8-9,6.8-13.9c-2.8-2.9-4.6-7-5.7-10.1V103.4c1.9-0.5,3.3-2.1,3.3-4.2
	c0-2-1.4-3.7-3.3-4.2v-94c0-0.6-0.5-1.1-1.1-1.1c0,0-0.1,0-0.1,0H24C17.8,0,9,0.4,4.6,4.7c-4.3,4.2-4.7,8.7-4.6,11
	c0.1,2.2,0.8,4.2,1.9,5.5C3.2,23,5.4,24.1,8,24.1c4.2,0,7.6-3.1,7.6-6.9c0-3.2-2.4-5.9-5.7-6.6c0.1,0.3,0.2,0.7,0.2,1
	c0,1.4-1.3,2.6-2.9,2.6c-2.3,0-4.4-3.7-1.6-7.5c0.2-0.2,0.3-0.4,0.5-0.6c3.5-3.4,10.6-3.9,16.2-4c3.2,1,12.2,4.2,17.6,10.9
	c5.4-6.7,14.5-9.9,17.7-10.9h2.7c0.9,2.6,3.3,4.4,6.2,4.4c2.8,0,5.3-1.8,6.2-4.4h47.8v33.5c-5.3-15.2-19.7-26.1-36.7-26.1
	c-19.3,0-35.3,14.1-38.3,32.6c-1.7,0.6-2.9,2.2-2.9,4.1c0,1.4,0.7,2.6,1.8,3.4c-1,17.4,8.8,39.4,19.1,62.5
	c9.2,20.5,18.6,41.8,19.4,58.9c0.8,15.9-5.7,22.3-10.1,24.8c0-0.2,0.1-0.4,0.1-0.6c0-2.4-2-4.4-4.4-4.4c-2.4,0-4.4,2-4.4,4.4
	c0,2.4,2,4.4,4.4,4.4c0.3,0,0.5-0.1,0.7-0.1c0,0,0.1,0,0.1,0c0,0,0.3-0.1,0.9-0.2c0,0,0,0,0,0c3.3-1,14.8-5.9,14.8-25.7
	c0-0.8,0-1.7-0.1-2.5c-0.8-17.5-10.4-38.9-19.6-59.7c-6-13.4-12-27-15.7-39.5c11.5,28.7,40.4,43.6,49.8,74.4
	c4.7,15.4,4.4,34.1,4.4,34.1v33.1c0.1,5.8,0.1,15.5-4,19.7c-0.2,0.2-0.4,0.4-0.6,0.5c-3.8,2.8-7.5,0.7-7.5-1.6
	c0-1.6,1.2-2.9,2.6-2.9c0.4,0,0.7,0.1,1,0.2c-0.8-3.3-3.4-5.7-6.6-5.7c-3.8,0-6.9,3.4-6.9,7.6c0,2.6,1.1,4.9,2.9,6.2
	c1.3,1,3.3,1.7,5.5,1.8c2.3,0.1,6.9-0.3,11-4.6c4.3-4.4,4.7-13.2,4.7-19.4V110.7c-1.5,3.6-5,6.1-9.1,6.1c-5.4,0-9.9-4.4-9.9-9.8
	s4.4-9.8,9.9-9.8c4.1,0,7.6,2.5,9.1,6.1c0-14.8,0-25,0-25c0-0.6-0.5-1.1-1.1-1.1c0,0-7.3,16.4-27.8,14C59.6,89,48.2,71.2,47.1,50.6
	c2.4,0,4.3-2,4.3-4.4c0-2.2-1.6-3.9-3.6-4.2c3-17.2,18-30.2,36.1-30.2c18,0,32.9,13,36,30c-5.2-12.5-17.3-21.3-31.2-21.3
	c-15.2,0-27.5,12.8-27.5,28.5c0,12.7,9.9,23,22.2,23c9.9,0,18-8.4,18-18.6c0-8.3-6.6-15.1-14.6-15.1c-6.6,0-11.9,5.5-11.9,12.3
	c0,5.5,4.4,10.1,9.7,10.1c0.1,0,0.2-0.1,0.2-0.1c3.4-0.2,6.1-3.1,6.1-6.5c0-3.6-2.9-6.6-6.6-6.6c-3.6,0-6.5,2.9-6.6,6.5
	c-0.5-1-0.7-2.2-0.7-3.3c0-5.6,4.4-10.1,9.7-10.1c6.8,0,12.4,5.8,12.4,12.9c0,9.1-7.1,16.5-15.8,16.5c-11,0-20-9.3-20-20.8
	c0-14.5,11.3-26.3,25.3-26.3c17.6,0,31.9,14.9,31.9,33.2v39.3c-1.9,0.5-3.3,2.1-3.3,4.2c0,2,1.4,3.7,3.3,4.2v160.3
	C119.5,266.8,117.7,271,114.8,273.8z"/>
</svg>
