<?xml version="1.0" encoding="utf-8"?>
<!-- Generator: Adobe Illustrator 27.3.1, SVG Export Plug-In . SVG Version: 6.00 Build 0)  -->
<svg version="1.1" id="Layer_1" xmlns="http://www.w3.org/2000/svg" xmlns:xlink="http://www.w3.org/1999/xlink" x="0px" y="0px"
	 viewBox="0 0 87.16 100" style="enable-background:new 0 0 87.16 100;" xml:space="preserve">
<style type="text/css">
	.st0{fill:#FFFFFF;}
</style>
<g>
	<g>
		<path class="st0" d="M81.46,33.06c-8.31-8.74-21.74-8.95-30.34-0.48c-2.46,2.43-4.92,4.85-7.69,7.58
			c-2.51-2.61-4.76-5.01-7.09-7.34c-9.1-9.06-23.34-8.51-31.45,1.2c-6.93,8.29-6.48,20.45,1.21,28.35c2.49,2.55,5,5.08,7.53,7.59
			l0.05,0.05c1.14,1.14,2.29,2.27,3.43,3.42c0.28,0.28,0.57,0.57,0.86,0.85c1.44,1.42,2.86,2.83,4.28,4.26
			c1.18,1.17,2.34,2.33,3.52,3.5c5.84,5.84,11.65,11.7,17.87,17.95c4.12-4.19,7.95-8.14,11.84-12.04
			c8.43-8.43,16.94-16.8,25.31-25.31C89.05,54.28,89.27,41.26,81.46,33.06z M22.37,61.35l-0.05-0.05c-2.26-2.26-4.51-4.52-6.76-6.78
			c-4.64-4.67-4.27-11.15,0.77-14.44c3.47-2.27,7.99-1.86,11.12,1.2c2.51,2.46,5,4.93,7.49,7.42c0.03,0.03,0.05,0.05,0.07,0.07
			L22.37,61.35z M72.46,53.57c-5.4,5.63-11,11.07-16.5,16.58c-3.3,3.31-6.58,6.64-9.89,9.93c-0.57,0.57-1.17,1.12-1.8,1.7
			c-0.21,0.2-0.43,0.4-0.65,0.61c-0.2-0.17-0.39-0.33-0.56-0.49c-0.45-0.39-0.84-0.73-1.21-1.08c-0.08-0.07-0.15-0.13-0.21-0.21l0,0
			c-1.78-1.78-3.56-3.58-5.36-5.36c-1.8-1.78-3.58-3.58-5.36-5.36l13.05-13.05c2.91-2.87,5.77-5.69,8.62-8.51
			c2.49-2.45,4.87-5,7.45-7.33c3.6-3.25,8.91-3.1,12.21,0.15C75.65,44.51,75.9,49.99,72.46,53.57z"/>
		<path class="st0" d="M81.46,33.06c-8.31-8.74-21.74-8.95-30.34-0.48c-2.46,2.43-4.92,4.85-7.69,7.58l-8.5,8.51L22.32,61.3
			l-8.67,8.67l0.05,0.05c1.14,1.14,2.29,2.27,3.43,3.42c0.28,0.28,0.57,0.57,0.86,0.85c1.44,1.42,2.86,2.83,4.28,4.26
			c1.18,1.17,2.34,2.33,3.52,3.5c5.84,5.84,11.65,11.7,17.87,17.95c4.12-4.19,7.95-8.14,11.84-12.04
			c8.42-8.43,16.93-16.8,25.3-25.31C89.05,54.28,89.27,41.26,81.46,33.06z M72.46,53.57c-5.4,5.63-11,11.07-16.5,16.58
			c-3.3,3.31-6.58,6.64-9.89,9.93c-0.57,0.57-1.17,1.12-1.8,1.7c-0.21,0.2-0.43,0.4-0.65,0.6c-0.2-0.17-0.39-0.33-0.56-0.49
			c-0.45-0.39-0.84-0.73-1.21-1.08c-0.08-0.07-0.15-0.15-0.21-0.21c-1.78-1.78-3.56-3.58-5.36-5.36c-1.78-1.78-3.58-3.58-5.36-5.36
			l13.05-13.05c2.91-2.87,5.77-5.69,8.62-8.51c2.49-2.45,4.87-5,7.45-7.33c3.6-3.25,8.91-3.1,12.21,0.15
			C75.65,44.51,75.9,49.99,72.46,53.57z"/>
	</g>
	<g>
		<path class="st0" d="M80.79,11.13c0,1.68-0.37,3.27-1.04,4.69c-1.77-3.8-5.63-6.44-10.09-6.44s-8.33,2.63-10.09,6.44
			c-0.66-1.42-1.04-3.02-1.04-4.69C58.53,4.99,63.52,0,69.66,0S80.79,4.99,80.79,11.13z"/>
		<circle class="st0" cx="17.52" cy="11.13" r="11.13"/>
	</g>
</g>
</svg>
