<?xml version="1.0" encoding="utf-8"?>
<!-- Generator: Adobe Illustrator 27.3.1, SVG Export Plug-In . SVG Version: 6.00 Build 0)  -->
<svg version="1.1" id="Layer_1" xmlns="http://www.w3.org/2000/svg" xmlns:xlink="http://www.w3.org/1999/xlink" x="0px" y="0px"
	 viewBox="0 0 1080 463" style="enable-background:new 0 0 1080 463;" xml:space="preserve">
<style type="text/css">
	.st0{fill:url(#SVGID_1_);}
</style>
<g>
	<g>
		<g>
			<path d="M1071.7,414.3c-0.9-0.9-1.3-2-1.3-3.2s0.4-2.4,1.3-3.3s1.9-1.4,3.2-1.4c1.2,0,2.2,0.5,3.1,1.4s1.3,2,1.3,3.3
				s-0.4,2.4-1.3,3.2c-0.9,0.9-1.9,1.3-3.1,1.3C1073.7,415.6,1072.6,415.2,1071.7,414.3z"/>
			<path d="M1070.7,373c-0.3-0.3-0.2-0.5,0.3-0.5c3.1,0.7,5.3,2.4,6.8,5c1.5,2.7,2.2,5.7,2.2,9c-0.3,4.6-2,8.3-5.2,11
				c-3.1,2.7-6.9,3.9-11.2,3.6c-3.9-0.3-7.3-1.8-10.2-4.5c-2.8-2.7-4.2-6.1-4.2-10.4c0-2.9,0.8-5.5,2.3-7.9c1.5-2.3,3.7-4,6.4-5.1
				c0.3-0.1,0.5,0,0.7,0.3c3.3,3.8,5.1,5.9,5.3,6.3c0.1,0.1,0.1,0.2,0.1,0.3c0,0.4-0.2,0.6-0.7,0.6c-2.7-0.2-5.5,0.2-8.3,1.2
				s-4.3,2.2-4.4,3.7c-0.1,1.3,0.7,2.5,2.3,3.4c1.6,1,3.3,1.6,5.1,1.8c4.1,0.6,7.6-0.2,10.5-2.2s4.3-4.9,4.3-8.6
				C1072.8,377.2,1072.1,374.8,1070.7,373z"/>
			<path d="M1049.8,349.9c1.2-4.1,3.7-7.3,7.4-9.4s7.6-2.7,11.7-1.5c3.4,1,6.1,2.8,8.1,5.6s3.1,5.9,3.1,9.3c0,1.5-0.2,2.9-0.6,4.3
				c-1.1,4.1-3.6,7.3-7.3,9.4s-7.7,2.7-11.7,1.5c-3.4-1-6.1-2.8-8.1-5.6s-3.1-5.9-3.1-9.4C1049.2,352.7,1049.4,351.3,1049.8,349.9z
				 M1078.8,353.9c0-1.1-1.3-2-4.1-2.6c-2.7-0.6-6.1-0.9-10.2-0.8c-4.3,0.1-7.7,0.4-10.2,0.9c-2.6,0.5-3.8,1.5-3.8,2.7
				c0,2.4,4.7,3.6,14.1,3.4C1074.1,357.4,1078.8,356.2,1078.8,353.9z"/>
			<path d="M1079.1,319.8V335c-2.2-1.2-4.4-1.8-6.6-1.8h-14.4c-2.2,0-4.3,0.6-6.6,1.8l-3.3-13.3h6.4c-3.1-1.2-4.9-3.6-5.3-7.2
				c0-0.1,0-0.3-0.1-0.6c0-0.2-0.1-0.5-0.1-0.7c0-2.1,0.5-4.1,1.4-6s2.4-3.2,4.5-4c-3.9-1.4-5.9-4.5-5.9-9.2
				c0-7.6,4.5-11.3,13.6-11.3h10.2c2,0,4.1-0.6,6.1-1.8v7.4c0,3.8-2.2,5.6-6.8,5.6h-12.3c-5.5,0-8.3,1.3-8.5,3.9
				c-0.1,1.2,0.6,2.3,1.9,3.2c1.4,1,3.6,1.4,6.7,1.4h12.8c2,0,4.1-0.6,6.1-1.8v7.4c0,3.8-2.2,5.7-6.8,5.7H1060h-0.7
				c-0.4,0-0.7,0-1.1,0c-0.3,0-0.8,0-1.3,0s-1,0.1-1.5,0.1c-0.4,0.1-0.9,0.2-1.4,0.4c-0.5,0.2-0.9,0.4-1.2,0.6s-0.6,0.5-0.8,0.9
				c-0.2,0.4-0.3,0.8-0.3,1.3c0,0.1,0,0.2,0.1,0.3s0.1,0.2,0.1,0.3c0.3,1.2,1.3,2.2,3.3,2.9c1.9,0.7,3.9,1,6.1,0.9h11.2
				C1074.7,321.6,1076.9,321,1079.1,319.8z"/>
		</g>
	</g>
	<g>
		<path d="M147.4,364.7c2.5,21.2-2.6,38.5-15.4,51.8c-12.8,13.3-28.4,21.4-46.8,24.5c-5.1,0.5-9.3,0.8-12.9,0.8
			c-9.6,0-18.8-1.1-27.5-3.2s-17.2-6.3-25.6-12.3c-8.3-6.1-13.9-13.8-16.7-23.1C-1,391.4,0.2,381,6,371.8s13.8-14.3,23.9-15.4
			c1.3-0.2,3.2-0.4,5.7-0.4c6.8,0,12.5,1.3,17.1,4c4.5,2.6,7.3,5.4,8.3,8.1c0.5,0.8,0.2,1.4-0.8,1.9c-1.8,0.8-3.7,2.1-5.9,4.2
			c-2.2,2-4.2,5.7-6.1,11c-1.9,5.3-2.3,11.4-1.3,18.2c1.5,9.6,5.4,17.3,11.6,23.1c6.2,5.8,13.3,8.7,21.4,8.7c0.5,0,1.2-0.1,2.1-0.2
			s1.4-0.2,1.7-0.2c11.1-1.8,19-7.8,23.7-18.2c4.7-10.4,5.4-20.6,2.1-30.7c-3.8-10.9-14.7-21.1-32.6-30.7c-4.1-2.3-9.2-5-15.4-8.1
			c-6.2-3.2-11.3-5.9-15.4-8.1l-6.1-3c-18.7-11.1-27.8-25.5-27.3-43.2c0.5-14.7,7.2-25.8,20.1-33.4S61,248,78.7,248
			c11.4,0,22.2,1.9,32.6,5.7s18.1,8.6,23.1,14.4c0.8,1.3,0.8,2.5,0,3.8c-1.3,1.5-4.7,6.8-10.2,15.9c-5.6,9.1-9.2,14.7-11,16.7
			c0,0.3-0.3,0.4-0.8,0.4c-0.8,0-1.1-0.4-1.1-1.1c-0.2-4.8-0.6-9-0.9-12.5s-1.3-7.9-2.7-13.1c-1.4-5.2-3.3-9.4-5.7-12.7
			c-2.4-3.3-5.9-6.2-10.4-8.7c-4.6-2.5-10-3.8-16.3-3.8c-6.8,0-13,1.6-18.6,4.7c-5.6,3.1-8.5,7.9-8.7,14.2c-0.2,4.5,1,8.4,3.8,11.6
			s7.8,6.8,15.2,10.8c10.9,5.6,26.8,14.8,47.8,27.7C134.5,334.5,145.4,348.8,147.4,364.7z"/>
		<path d="M157.6,283.2h29.6c14.9,0,22.4,9.1,22.4,27.3v49.3c0,21.5,5.9,32.2,17.8,32.2c5.6-0.8,9.7-4.7,12.5-12
			c2.8-7.2,3.9-15.1,3.4-23.7v-46.6c0-8.3-2.4-17.2-7.2-26.5H290l-0.4,84.2c0,8.3,2.4,17.2,7.2,26.5l-53.1,13.3l-0.4-24.6
			c-5.6,12.4-15.6,19-29.9,19.7c-16.4,0-28.6-5-36.6-15.2c-8-10.1-11.9-23.6-11.9-40.6v-38.7C164.9,300,162.4,291.8,157.6,283.2z"/>
		<path d="M312,287v-1.1c0-1.8,0.8-2.6,2.3-2.6h14.4c3.3-28.8,19.3-44,48.2-45.5c0.5,0,1.3-0.1,2.3-0.2c1-0.1,1.9-0.2,2.6-0.2
			c9.6,0,19.2,1.9,28.8,5.7c9.6,3.8,16.5,9,20.9,15.5c0.5,1,0.5,1.9,0,2.6c-1.3,1.5-5.2,5.7-11.8,12.5c-6.6,6.8-10.8,11.2-12.5,13.3
			c-1,1-1.5,0.9-1.5-0.4c-0.2-8.6-2.8-17.4-7.6-26.4s-10.8-13.7-17.8-14.2h-1.9c-1.8,0-3.4,0.2-4.7,0.8c-1.4,0.5-2.5,1.3-3.2,2.5
			c-0.8,1.1-1.4,2.3-1.9,3.4c-0.5,1.1-0.8,2.6-0.8,4.5s0.1,3.5,0.2,4.9s0.4,3.2,1,5.5c0.5,2.3,0.9,4,1.1,5.3s0.7,3.1,1.3,5.5
			c0.6,2.4,1.1,4,1.3,4.7h14c1.5,0,2.3,0.9,2.3,2.6v1.1c0,1.8-0.8,2.7-2.3,2.7h-12.9v83.4c0,7.8,2.4,16.6,7.2,26.2h-60.7
			c4.8-8.9,7.2-17.6,7.2-26.2v-76.2c0-1,0.1-2.3,0.2-3.8s0.2-2.6,0.2-3.4h-13.6C312.7,289.7,312,288.8,312,287z"/>
		<path d="M477.7,373.1c0,8.6,2.4,17.3,7.2,26.2h-60.7c4.8-8.9,7.2-17.6,7.2-26.2v-51.6c0-7.8-2.4-16.5-7.2-26.2
			c2.5,0.2,5.6,0.4,9.1,0.4c21.5,0,36.1-4.5,44-13.6L477.7,373.1z M470.7,273.4c-4.7,4.8-10.3,7.2-16.9,7.2s-12.3-2.3-17.1-7
			c-4.8-4.7-7.2-10.3-7.2-16.9s2.4-12.2,7.2-16.9c4.8-4.7,10.5-7,17.1-7s12.2,2.3,16.9,7c4.7,4.7,7,10.3,7,16.9
			C477.7,263,475.3,268.5,470.7,273.4z"/>
		<path d="M508.8,310.1c-4.8-11.9-10.2-20.9-16.3-26.9h60.7c-3.5,6.6-2.9,15.5,1.9,26.9c6.6,16.4,14.8,34.6,24.7,54.6
			c2.8-6.6,5.8-13.8,9.1-21.8s6.2-15.1,8.7-21.4s4-10.1,4.5-11.4c2.5-6.3,4-11,4.4-14s-0.5-7.3-2.5-12.9h24.3
			c-5.6,5.6-11,14.5-16.3,26.9l-38.3,91.4c-7.3,17.7-14.1,31.5-20.3,41.3c-6.2,9.9-12.6,15.9-19.2,18.2c-3.5,1-7.3,1.5-11.4,1.5
			c-9.1,0-16.1-2.4-20.9-7.2c-1-1-1.1-2-0.4-3c0.8-1.3,4.1-8.5,10-21.8c5.9-13.3,9.4-20.9,10.4-22.9c0.2-0.8,0.8-0.8,1.5,0
			c2.5,14.4,5.2,23.1,8,26.2c1.5,1.8,3.4,2.6,5.7,2.6c1.5,0,3.2-0.4,4.9-1.1c5-2.3,12.3-13.6,21.6-34.1l-10.6,4.5
			c-0.5,0.2-1.1,0.4-1.9,0.4c-2,0-3.3-0.9-3.8-2.6c-1.8-4-5.7-13.4-11.8-28.1s-11.8-28.4-17.1-41.1
			C513.3,321.5,510,313.4,508.8,310.1z"/>
		<path d="M750.7,399.6h-29.6c-12.6,0-19.8-6.6-21.6-19.7c-3.3,5.6-8.2,10.6-14.6,15.2c-6.5,4.5-13.8,7.1-22.2,7.6
			c-24.3,0-36.4-9.4-36.4-28.1c0-9.6,3.3-18.2,9.9-25.8c6.6-7.6,14.5-13.2,23.9-16.9c9.3-3.7,17.2-6.4,23.5-8.1s11.4-2.8,15.2-3
			c2.5-22-3.2-33-17.1-33h-2.3c-7.1,0.8-12.7,4.8-16.9,12.1c-4.2,7.3-6.4,15.2-6.6,23.5c0,1.3-0.5,1.4-1.5,0.4
			c-1.3-2-3.9-5.6-7.8-10.6c-3.9-5-6.1-8-6.6-8.7c-0.8-0.8-0.8-1.8,0-3c4.5-6.8,11.1-12.1,19.7-15.7c8.6-3.7,16.5-5.5,23.9-5.5
			c6.8,0,13.3,0.7,19.3,2.1c6.1,1.4,12.4,3.9,19,7.4s11.8,9.3,15.7,17.2c3.9,8,5.9,17.6,5.9,29v38.7
			C743.5,381.7,745.9,390,750.7,399.6z M678.3,387.1c0.5,0.3,1.4,0.4,2.7,0.4c6.1,0,12.1-4,18.2-12.1c-0.2-0.8-0.4-1.9-0.4-3.4
			v-47.8c-6.3,1.8-12.9,6.1-19.7,12.9s-10.6,15.9-11.4,27.3C666.6,377.8,670.2,385.3,678.3,387.1z"/>
		<path d="M762.1,289.7l53.1-13.3v23.9c6.1-12.6,16.2-19.3,30.3-20.1c16.2,0,28.3,5.2,36.4,15.5s12.1,24,12.1,41v37.9
			c0,8.3,2.4,16.6,7.2,24.6h-29.6c-14.9,0-22.4-9.1-22.4-27.3V323c0-21.5-5.9-32.2-17.8-32.2c-5.6,0.8-9.7,4.7-12.5,11.9
			c-2.8,7.2-3.9,15.2-3.4,24.1v46.3c0,8.6,2.4,17.3,7.2,26.2H762c4.8-8.9,7.2-17.6,7.2-26.2v-57.3
			C769.3,307.2,766.9,298.5,762.1,289.7z"/>
		<path d="M1038.9,399.6h-29.6c-12.6,0-19.8-6.6-21.6-19.7c-3.3,5.6-8.2,10.6-14.6,15.2s-13.8,7.1-22.2,7.6
			c-24.3,0-36.4-9.4-36.4-28.1c0-9.6,3.3-18.2,9.9-25.8c6.6-7.6,14.5-13.2,23.9-16.9c9.3-3.7,17.2-6.4,23.5-8.1s11.4-2.8,15.2-3
			c2.5-22-3.2-33-17.1-33h-2.3c-7.1,0.8-12.7,4.8-16.9,12.1c-4.2,7.3-6.4,15.2-6.6,23.5c0,1.3-0.5,1.4-1.5,0.4
			c-1.3-2-3.9-5.6-7.8-10.6c-3.9-5-6.1-8-6.6-8.7c-0.8-0.8-0.8-1.8,0-3c4.5-6.8,11.1-12.1,19.7-15.7c8.6-3.7,16.5-5.5,23.9-5.5
			c6.8,0,13.3,0.7,19.3,2.1c6.1,1.4,12.4,3.9,19,7.4s11.8,9.3,15.7,17.2c3.9,8,5.9,17.6,5.9,29v38.7
			C1031.7,381.7,1034.1,390,1038.9,399.6z M966.4,387.1c0.5,0.3,1.4,0.4,2.7,0.4c6.1,0,12.1-4,18.2-12.1c-0.3-0.8-0.4-1.9-0.4-3.4
			v-47.8c-6.3,1.8-12.9,6.1-19.7,12.9s-10.6,15.9-11.4,27.3C954.8,377.8,958.3,385.3,966.4,387.1z"/>
	</g>
</g>
<linearGradient id="SVGID_1_" gradientUnits="userSpaceOnUse" x1="176.5726" y1="190.017" x2="176.5726" y2="-12.3509">
	<stop  offset="0" style="stop-color:#C7203E"/>
	<stop  offset="1" style="stop-color:#800412"/>
</linearGradient>
<path class="st0" d="M259.6,73.3c-0.5-0.6-1-1.1-1.5-1.7c-17.9-18.8-46.8-19.3-65.3-1c-5.3,5.2-10.6,10.4-16.5,16.3
	c-5.4-5.6-10.2-10.8-15.3-15.8c-19.6-19.5-50.2-18.3-67.7,2.6c-14.9,17.8-13.9,44,2.6,61c5.3,5.5,10.8,10.9,16.2,16.4l0.1,0.1
	c2.5,2.4,4.9,4.9,7.4,7.4c0.6,0.6,1.2,1.2,1.8,1.8c3.1,3.1,6.2,6.1,9.2,9.2c2.5,2.5,5.1,5,7.6,7.5c12.6,12.6,25.1,25.2,38.5,38.6
	c0,0,0.1-0.1,0.1-0.1c0,0,0,0,0,0c8.9-9,17.1-17.5,25.5-25.9c4.5-4.5,9-9,13.5-13.5c9.1-9.1,18.3-18.1,27.3-27.2
	c4.6-4.6,9.1-9.2,13.6-13.8C273.9,117.8,274.9,90.9,259.6,73.3z M118.1,86.7c7.5-4.9,17.2-4,23.9,2.6c5.4,5.3,10.7,10.5,16,15.9l0,0
	l-27.1,27.1c-4.8-4.9-9.7-9.7-14.5-14.5C106.4,107.7,107.2,93.8,118.1,86.7z M203.2,151.4c-7.1,7.1-14.2,14.3-21.3,21.4
	c-1.2,1.2-2.5,2.4-3.9,3.7c-0.5,0.4-0.9,0.9-1.4,1.3c-0.4-0.4-0.8-0.7-1.2-1.1c-1-0.8-1.8-1.6-2.6-2.3c-0.2-0.1-0.3-0.3-0.5-0.5
	c-3.8-3.8-7.7-7.7-11.5-11.5c-3.8-3.8-7.7-7.7-11.4-11.5l28-28c6.3-6.2,12.4-12.2,18.5-18.3c5.3-5.3,10.5-10.8,16-15.8
	c7.8-7,19.2-6.7,26.3,0.3c3.7,3.5,5.7,8.3,5.8,13.1c0.1,4.8-1.6,9.7-5.3,13.5C227.1,127.8,215,139.5,203.2,151.4z M211.1,34.5
	c-1.4-3.1-2.2-6.5-2.2-10.1c0-13.2,10.7-24,23.9-24c13.1,0.1,23.9,10.8,23.9,24c0,3.6-0.8,7-2.2,10.1c-3.8-8.2-12.1-13.9-21.7-13.9
	C223.2,20.6,214.9,26.3,211.1,34.5z M96.6,24.4c0-13.2,10.7-23.9,23.9-23.9s23.9,10.7,23.9,23.9c0,13.2-10.7,23.9-23.9,23.9
	S96.6,37.6,96.6,24.4z"/>
<g>
	<path d="M397.9,61.3h41.9c-10.3,14.4-15.5,41.4-15.5,81.2l0.4,65.7h-21.9L325.3,90c-0.8,6-1.1,11.1-1.1,15.1v26.1
		c0,5.3,0.9,11.9,2.6,19.8c1.8,7.9,5.8,17.8,12.1,29.5c6.3,11.7,14.4,21,24.2,27.8h-65.4c13.3-21.4,20-50.5,20-87.3v-15.9
		c0-6.8-1.7-14.9-5.1-24.2s-8.4-15.9-14.9-19.6h65.7l54,82.7C415.8,102.7,409.2,75.1,397.9,61.3z"/>
	<path d="M443.6,63.2c0-9.6,3.3-17.1,10-22.7s15.3-8.3,25.9-8.3c2.8,0,4.9,0.1,6.4,0.4c11.3,1.3,25,6.7,41.2,16.4
		c16.1,9.7,28.7,14.5,37.8,14.5c2.3,0,4-0.1,5.3-0.4c0.2,0,1.1-0.2,2.7-0.6s3.3-0.8,5.5-1.1c2.1-0.4,3.8-0.7,5.1-0.9
		c-5,8.6-7.5,37.5-7.5,86.9c22.4-37.5,40-57.5,52.9-60.1c1-0.2,2.9-0.4,5.7-0.4c9.1,0,16.2,3.4,21.5,10.2c0.5,0.8,0.5,1.8,0,3
		c-1,1.5-4.8,7.2-11.3,17.2c-6.5,9.9-10.3,15.7-11.3,17.2c-1,0.5-1.5,0.4-1.5-0.4c0-1,0-3,0-6s-0.1-5.2-0.2-6.6
		c-0.1-1.4-0.3-3.3-0.6-5.7c-0.2-2.4-0.6-4.2-1-5.5s-0.9-2.6-1.7-4s-1.8-2.4-3-3c-1.3-0.6-2.8-0.9-4.5-0.9c-0.2,0-0.6,0.1-1.1,0.2
		s-1,0.2-1.5,0.2c-5,0.8-12.6,8.8-22.7,24.2c27.5,36,43.4,56.4,48,61.2c7.5,8.1,14,14.6,19.3,19.6h-68.8c3-2.5,3.5-5.4,1.5-8.7
		c-0.2-0.5-1.4-2.1-3.4-4.9c-2-2.8-4.6-6.3-7.7-10.6c-3.2-4.3-5.7-7.8-7.7-10.6c1,21.7,3.3,33.1,6.8,34.4h-60.5
		c4.8-3,7.2-22.3,7.2-57.8V92.2c0-12.6-2.4-23-7.2-31.2S512,48.2,503.9,47.2c-0.5,0-1-0.1-1.5-0.2c-0.5-0.1-0.9-0.2-1.1-0.2
		c-3.8,0-6.6,1.1-8.5,3.4s-2.8,5-2.8,8.3c0,2.8,0.8,5.3,2.5,7.6c1.6,2.3,3.8,3.4,6.6,3.4c0.8,0,1.1,0.5,1.1,1.5
		c-0.5,3.8-3.4,8-8.7,12.7c-5.3,4.7-12,7-20,7c-7.3,0-13.7-2.7-19.3-8.1C446.4,77.2,443.6,70.7,443.6,63.2z M507,207.8h-60.4
		c4.8-9.3,7.2-18.1,7.2-26.4V130c0-7.3-2.3-16-6.8-26.1c2.3,0.2,5.3,0.4,9.1,0.4c20.9,0,35.5-4.5,43.8-13.6v90.7
		C499.9,188.9,502.2,197.8,507,207.8z"/>
	<path d="M792.2,208.2h-29.5c-12.6,0-19.8-6.6-21.5-19.6c-3.3,5.5-8.1,10.6-14.5,15.1s-13.8,7.1-22.1,7.6
		c-24.2,0-36.3-9.3-36.3-27.9c0-9.6,3.3-18.1,9.8-25.7c6.5-7.6,14.5-13.2,23.8-16.8s17.1-6.4,23.4-8.1c6.3-1.8,11.3-2.8,15.1-3
		c2.5-21.9-3.2-32.9-17-32.9h-2.3c-7,0.8-12.7,4.8-16.8,12.1c-4.2,7.3-6.4,15.1-6.6,23.4c0,1.3-0.5,1.4-1.5,0.4
		c-1.3-2-3.8-5.5-7.8-10.6c-3.9-5-6.1-7.9-6.6-8.7c-0.8-0.8-0.8-1.8,0-3c4.5-6.8,11.1-12,19.6-15.7c8.6-3.7,16.5-5.5,23.8-5.5
		c6.8,0,13.2,0.7,19.3,2.1c6,1.4,12.3,3.8,18.9,7.4c6.5,3.5,11.8,9.2,15.7,17.2c3.9,7.9,5.9,17.6,5.9,28.9v38.5
		C785.1,190.3,787.5,198.6,792.2,208.2z M720.1,195.8c0.5,0.2,1.4,0.4,2.6,0.4c6,0,12.1-4,18.1-12.1c-0.2-0.8-0.4-1.9-0.4-3.4V133
		c-6.3,1.8-12.8,6-19.6,12.8s-10.6,15.9-11.3,27.2C708.5,186.4,712,194,720.1,195.8z"/>
	<path d="M1009.4,136.1c3.3,3.5,5.8,9.5,7.6,17.9s2.1,17.2,1.1,26.2c-1.8,16.6-8.6,29.7-20.6,39.3s-24.7,14.7-38.3,15.5
		c-18.4,0-33.7-4.5-45.9-13.6s-18.6-22.5-19.1-40.4v-49.5c0-21.4-5.9-32.1-17.8-32.1c-5.5,0.8-9.7,4.8-12.5,12.1
		c-2.8,7.3-3.9,15.2-3.4,23.8v46.5c0,8.6,2.4,17.2,7.2,26.1h-60.4c4.8-8.8,7.2-17.5,7.2-26.1V87.7c0-8.3-2.4-17.1-7.2-26.4
		l52.9-14.7l0.4,62c5.8-12.3,15.7-18.9,29.8-19.6c16.1,0,28.2,5.2,36.3,15.5s12.1,23.9,12.1,40.8v50.2c0,22.7,6.4,34,19.3,34
		c5.8,0,10.5-3.3,14-10s5.3-15.2,5.3-25.5c0-7.1-1.5-12.9-4.3-17.6c-2.9-4.7-5.6-7.7-8.1-9.1c-2.5-1.4-4.8-2.2-6.8-2.5
		c-1.3-0.5-1.4-1.3-0.4-2.3c4.3-3,12.9-8.1,25.9-15.1C996.5,140.4,1005.2,136.6,1009.4,136.1z"/>
</g>
</svg>
