<?xml version="1.0" encoding="utf-8"?>
<!-- Generator: Adobe Illustrator 27.3.1, SVG Export Plug-In . SVG Version: 6.00 Build 0)  -->
<svg version="1.1" id="Layer_1" xmlns="http://www.w3.org/2000/svg" xmlns:xlink="http://www.w3.org/1999/xlink" x="0px" y="0px"
	 viewBox="0 0 271.43 11.98" style="enable-background:new 0 0 271.43 11.98;" xml:space="preserve">
<style type="text/css">
	.st0{fill:#BA7F08;}
</style>
<g>
	<g>
		<path class="st0" d="M2.39,9.74l4.74-1.39l1.32-0.39l6.75-1.98L8.45,4.01L7.13,3.62L2.39,2.23C3.56,2.9,4.43,3.61,4.95,4.35
			c0.37,0.53,0.57,1.08,0.57,1.64S5.32,7.1,4.95,7.63C4.43,8.37,3.56,9.08,2.39,9.74z"/>
		<path class="st0" d="M0,5.99l4.95,1.64l2.18,0.73l1.32-0.39c-0.54-0.63-0.83-1.3-0.83-1.98s0.29-1.35,0.83-1.98L7.13,3.62
			L4.95,4.35L0,5.99z"/>
	</g>
	<g>
		<path class="st0" d="M269.04,2.23l-4.74,1.39l-1.32,0.39l-6.75,1.98l6.75,1.98l1.32,0.39l4.74,1.39
			c-1.17-0.66-2.04-1.37-2.56-2.12c-0.37-0.53-0.57-1.08-0.57-1.64s0.2-1.11,0.57-1.64C267,3.6,267.87,2.9,269.04,2.23z"/>
		<path class="st0" d="M271.43,5.99l-4.95-1.64l-2.18-0.73l-1.32,0.39c0.54,0.63,0.83,1.29,0.83,1.98s-0.29,1.35-0.83,1.98
			l1.32,0.39l2.18-0.72L271.43,5.99z"/>
	</g>
	<g>
		<path class="st0" d="M165.26,6.77h97.08c0.43,0,0.78-0.35,0.78-0.78c0-0.43-0.35-0.78-0.78-0.78h-97.08
			c-0.43,0-0.78,0.35-0.78,0.78C164.48,6.42,164.83,6.77,165.26,6.77z"/>
		<path class="st0" d="M8.99,6.77h97.08c0.43,0,0.78-0.35,0.78-0.78c0-0.43-0.35-0.78-0.78-0.78H8.99c-0.43,0-0.78,0.35-0.78,0.78
			C8.21,6.42,8.56,6.77,8.99,6.77z"/>
	</g>
	<g>
		<g>
			<path class="st0" d="M120.91,9.84c2.58,0,5.12-0.83,7.22-2.42l8-6.02c0.34-0.26,0.41-0.75,0.15-1.09
				c-0.26-0.34-0.75-0.41-1.09-0.15l-8,6.02c-2.44,1.83-5.54,2.51-8.5,1.87l-12.95-2.82c-0.42-0.09-0.83,0.17-0.92,0.59
				s0.17,0.83,0.59,0.92l12.95,2.82C119.21,9.75,120.06,9.84,120.91,9.84z"/>
			<path class="st0" d="M150.42,9.84c0.85,0,1.7-0.09,2.54-0.27l12.95-2.82c0.42-0.09,0.69-0.51,0.59-0.92
				c-0.09-0.42-0.51-0.69-0.92-0.59l-12.95,2.82c-2.96,0.64-6.06-0.04-8.5-1.87l-8-6.02c-0.34-0.26-0.83-0.19-1.09,0.15
				s-0.19,0.83,0.15,1.09l8,6.02C145.31,9,147.84,9.84,150.42,9.84z"/>
		</g>
		<g>
			<path class="st0" d="M135.66,11.98c0.16,0,0.33-0.05,0.47-0.16l8-6.02c2.44-1.83,5.53-2.52,8.5-1.87l12.95,2.82
				c0.42,0.09,0.83-0.17,0.92-0.59s-0.17-0.83-0.59-0.92l-12.95-2.82c-3.41-0.74-6.97,0.04-9.76,2.15l-8,6.02
				c-0.34,0.26-0.41,0.75-0.15,1.09C135.2,11.87,135.43,11.98,135.66,11.98z"/>
			<path class="st0" d="M135.66,11.98c0.24,0,0.47-0.11,0.62-0.31c0.26-0.34,0.19-0.83-0.15-1.09l-8-6.02
				c-2.8-2.1-6.35-2.89-9.76-2.15l-12.95,2.82c-0.42,0.09-0.69,0.51-0.59,0.92c0.09,0.42,0.51,0.69,0.92,0.59l12.95-2.82
				c2.96-0.64,6.06,0.04,8.5,1.87l8,6.02C135.34,11.93,135.5,11.98,135.66,11.98z"/>
		</g>
	</g>
</g>
</svg>
